<svg xmlns="http://www.w3.org/2000/svg" width="70" height="97" fill="none" viewBox="0 0 70 97">
  <path fill="currentColor" d="M56.7149.11441c-.0949.060212-.2371.132462-.3142.156548-.243.078278-.4149.282997-.6639.776722-.1304.27095-.2608.5118-.2845.54792-.0296.03011-.2193.3974-.4327.81285-.2134.41546-.4564.87306-.5335 1.02359-.083.15053-.326.60813-.5394 1.02359-.2075.41546-.4802.92724-.6046 1.14401-.1186.21676-.2846.54189-.3676.72253-.0889.18063-.2311.45158-.3141.60211-.0889.15053-.3379.60813-.5454 1.02359-.2134.41546-.492.93929-.6105 1.17412-.1245.22879-.3379.63823-.4742.90311-.2312.4516-.4209.8069-.8892 1.686-.1956.3612-.5631 1.0717-1.0966 2.1073-.1541.2951-.3675.7045-.4742.9032-.1956.3553-.326.6081-.9306 1.7762-.166.3131-.3735.7045-.4624.8731-.0889.1626-.3023.572-.4742.9032-.1719.3311-.3971.7646-.5038.9633s-.3261.6202-.4861.9333c-.166.3131-.3912.7466-.5098.9634-.1126.2167-.3082.578-.4268.8128-.1245.2288-.3023.572-.3971.7527-.0949.1806-.3438.6563-.5513 1.0537s-.4446.855-.5335 1.0236c-.0889.1625-.2845.5419-.4446.8429-.1541.295-.3734.7165-.492.9333-.1126.2167-.3497.6743-.5334 1.0236-.1779.3492-.3913.7526-.4742.9031-.0771.1506-.3083.5781-.498.9574-.1956.3733-.5394 1.0356-.7706 1.4752-.2311.4335-.5157.9754-.6401 1.2102-.1186.2288-.3498.6623-.5039.9634-.1541.295-.3912.7466-.5216.9935-.1304.2468-.332.6382-.4565.873-.1244.2288-.4505.855-.7231 1.3849-.2786.5298-.5928 1.1259-.6995 1.3246-.3497.6623-.7232 1.3789-1.1144 2.1375-.2075.4155-.4031.7767-.4268.8129-.0237.0301-.1837.3251-.3497.6442-.5335 1.0417-.8714 1.6799-1.4997 2.8781-1.0551 1.999-1.3871 2.6674-1.4938 3.0407-.0592.1987-.1422.4696-.1837.6021-.0415.1324-.1778.566-.2964.9633-.1245.3974-.2549.8009-.2964.9032-.0415.0964-.1067.3011-.1482.4516-.0355.1505-.1422.4997-.2371.7827-.2015.6262-.4505 1.421-.7409 2.3784-.1245.3974-.2431.7767-.2668.8429-.1007.2529-.1778.4998-.3201.9935-.083.283-.2015.6623-.2608.843-.0652.1806-.1897.572-.2786.873-.0889.2951-.2845.9092-.4327 1.3548-.1423.4455-.2727.855-.2786.9031-.0059.0482-.0415.1686-.083.271-.0415.0963-.1126.3312-.16.5118-.0475.1806-.1304.4636-.1956.6322-.1482.4034-.3616 1.0958-.3616 1.1922 0 .0361-.0356.1385-.0771.2228s-.1245.3251-.1837.5419c-.0593.2167-.1423.4877-.1838.6021-.083.2107-.7172 2.2338-.9306 2.9503-.0652.2168-.166.5238-.2253.6924-.0593.1626-.166.5058-.2371.7527-.0711.2468-.2075.6743-.3023.9513-.0949.277-.1719.5479-.1719.6021s-.0356.1686-.0771.2529-.1185.3011-.1719.4817c-.2549.849-.3438 1.144-.4623 1.5053-.1779.5178-.2964.9031-.5632 1.7762-.1244.3974-.243.7767-.2726.843-.0237.0662-.0652.2167-.0889.3311-.0178.1144-.0534.2348-.0771.271-.0237.0301-.0889.2227-.1482.4214s-.1719.5359-.2489.7527c-.0712.2167-.166.5058-.2016.6503s-.2134.7104-.3912 1.2584c-.1778.5479-.3497 1.0958-.3794 1.2162-.0237.1205-.1422.4877-.2549.8189-.1126.3312-.2904.8731-.3912 1.2042-.2727.8972-.6105 1.9689-.658 2.1074-.1126.3191-.4149 1.3066-.4149 1.3728 0 .0422-.0356.1385-.0771.2228-.0414.0843-.1067.2589-.1422.3914-.0415.1324-.2608.8369-.492 1.5655-.2253.7285-.4149 1.3668-.4149 1.4149 0 .0542-.0238.1204-.0475.1505-.0296.0362-.0948.2108-.1482.3914-.0533.1807-.2134.6985-.3556 1.144-.1423.4456-.3438 1.0959-.4505 1.4451-.1126.3492-.2312.7285-.2727.843-.1304.3612-.6817 2.1314-.6817 2.1977 0 .0301-.0652.2348-.1422.4515-.0771.2168-.2549.7587-.3913 1.2043-.1422.4455-.2786.8369-.3082.873-.0237.0301-.0474.1445-.0474.2529 0 .1806.0178.1987.1778.1987.1186 0 .1778-.0301.1778-.0903 0-.0542.1186-.3071.2668-.572.1482-.265.2667-.4877.2667-.5058 0-.012.1186-.2288.2608-.4757.1423-.2468.3794-.6743.5276-.9513.1423-.277.3438-.6503.4505-.8249.1008-.1746.1838-.3311.1838-.3432 0-.0181.2015-.3853.4445-.8189.2431-.4335.4446-.8008.4446-.8188 0-.0181.1186-.2349.2668-.4817.1481-.2409.2667-.4516.2667-.4697 0-.012.243-.4576.5335-.9874.2964-.5359.5335-.9875.5335-.9995 0-.0181.0652-.1325.1363-.2589.0771-.1205.249-.4275.3794-.6744s.486-.8971.7884-1.4451c.3023-.5479.6224-1.1319.7113-1.2945.0889-.1686.2726-.4998.409-.7466.1363-.2469.243-.4576.243-.4757s.0356-.0783.083-.1264c.0415-.0542.2134-.3613.3853-.6804.166-.3252.3557-.6744.4209-.7828.0652-.1083.2252-.4034.3556-.6502.2312-.4456.3142-.6021.9484-1.7462.3675-.6743.8536-1.5594 1.0374-1.8966.4623-.867.5868-1.0898.6224-1.144.0296-.0361.16-.277.2964-.5419.1363-.2649.3378-.6322.4505-.8189.1126-.1866.2015-.3673.2015-.3914 0-.0301.0652-.1505.1423-.2649.0711-.1144.2311-.3853.3438-.6021.1126-.2168.2963-.5539.403-.7526s.2371-.4456.2964-.5419c.0593-.1024.1719-.3011.249-.4516.1304-.2409.4505-.8309 1.3456-2.4626.1363-.2469.243-.4577.243-.4697 0-.0181.0474-.1024.1067-.1866.0652-.0904.243-.4095.3971-.7045.3083-.5901.4031-.7587.8299-1.5354.1541-.283.4149-.7587.5809-1.0537.1601-.301.3675-.6804.4564-.8429.089-.1686.2727-.4998.4091-.7467.1363-.2468.243-.4576.243-.4756 0-.0181.0355-.0783.077-.1265.0475-.0542.2134-.3432.3676-.6382.16-.3011.3556-.6804.4445-.843.0889-.1686.2905-.5298.4446-.8128.16-.283.3616-.6563.4505-.8309.0948-.1807.1897-.3553.2193-.3914.0297-.0421.1541-.2649.2786-.4937.2075-.3854.5631-1.0477.9366-1.716.652-1.1922 1.5827-2.9082 1.5827-2.9263s.0711-.1385.16-.283c.083-.1385.2371-.4154.3438-.6141.1008-.1987.332-.6202.5039-.9333.8476-1.5414 1.1025-2.0412 1.2033-2.3784.1719-.578.6461-2.1134.7824-2.5288.0771-.2348.2134-.6684.3023-.9634.2253-.7647.6639-2.1736.7766-2.4988.0533-.1505.1304-.4214.1778-.6021.0474-.1806.1067-.3853.1363-.4515.0297-.0663.1364-.4035.2371-.7527.1008-.3492.249-.8249.326-1.0537.0771-.2348.2134-.6683.3024-.9634.0889-.301.2608-.855.3853-1.2343.1185-.3793.2371-.7887.2608-.9031s.0592-.2409.083-.271c.0237-.0361.0889-.2228.1481-.4215.0593-.1987.1423-.4696.1838-.6021.0415-.1324.16-.5238.2667-.873.1067-.3493.3083-.9875.4446-1.415.1364-.4335.2668-.867.2905-.9634.0237-.1023.0889-.3191.1482-.4817.0652-.1686.1719-.5057.243-.7526s.2075-.6804.2964-.9634c.1956-.6141.2845-.9152.5335-1.7461.1007-.3492.2252-.7286.2667-.843.0474-.1144.1126-.3191.1541-.4515.0356-.1325.1186-.3914.1719-.572.0593-.1807.1245-.4275.1482-.5419s.0652-.2409.0889-.271c.0178-.0361.0889-.2228.1423-.4215.1541-.5419.2727-.9092.4564-1.4631.0949-.277.1719-.5419.1719-.5961 0-.0482.0356-.1746.083-.277.0474-.1083.1541-.4395.243-.7345.083-.3011.2194-.7406.3024-.9815.077-.2408.1541-.4877.1659-.5419.006-.0542.0297-.1445.0475-.1927.1363-.3733.2193-.6623.2548-.8429.0238-.1144.0652-.2408.089-.271.0177-.0361.0889-.2227.1422-.4214.0593-.1987.1423-.4697.1897-.6021.0474-.1385.083-.283.083-.3252 0-.0421.0415-.1626.0889-.2649.0474-.1084.1363-.3854.2015-.6142.0652-.2348.2549-.855.4209-1.3848.4327-1.3668.4387-1.3788.4209-1.4391-.006-.024.0118-.0782.0415-.1204.0296-.0361.0948-.2167.1482-.3974.0592-.1806.2193-.7105.3675-1.1681.1482-.4636.2667-.8791.2667-.9272 0-.0482.0356-.1686.083-.271.0474-.1083.1838-.5178.3023-.9152.1186-.3974.2667-.873.326-1.0537.2727-.8429.415-1.3427.415-1.445 0-.0602.0237-.12648.0474-.14455.0296-.01805.1008-.19869.16-.40943.0593-.21074.2194-.73457.3557-1.16207.1363-.43352.2727-.87908.2964-.99348.0237-.11441.0592-.24085.083-.27095.0237-.03613.077-.18064.1185-.33116.0415-.15053.1245-.42148.1838-.60212.0592-.18063.1956-.61415.2963-.96337.332-1.1139.3676-1.22831.5098-1.6257.0771-.21676.166-.52383.2016-.68038.0355-.15655.0829-.33116.1126-.39137.0356-.0542.1541-.43955.2786-.855.1245-.41546.2727-.867042.3319-1.01155.1245-.307076.1423-.67436237.0356-.66834278-.0415 0-.16.05419158-.2608.10838278M35.2569 1.9388c.0059.04215.0652.09032.1244.09634.0652.01806.089 0 .0593-.04215-.0178-.03612-.0593-.05419-.0889-.03612-.0237.01806-.0652 0-.0771-.03011-.0177-.03613-.0237-.03011-.0177.01204m-.7944.07226c-.0829.03612-.1837.09633-.2252.13848s-.1067.07828-.1423.07828c-.0355 0-.0533.01806-.0355.03612.0296.02409.3201-.10838.5749-.26493.0119-.00602.0119-.02408 0-.03612-.0118-.01205-.0889.00602-.1719.04817m.172.11439c-.3319.12644-.6402.33116-1.0788.72855-.2905.25289-.4209.33718-.4505.28299-.0652-.10235-.9721.81887-.9247.9393.0178.06021-.1779.32514-.5394.73457-.3142.34923-.6284.70447-.6995.78876-.166.18666-1.6064 1.95084-1.8435 2.2519-.3971.51179-.575.73457-.6698.84897-.0534.06624-.2668.34923-.4802.63222-.2074.28299-.4564.60813-.5512.72249-.0949.1144-.1956.2469-.2312.2891-.0356.0421-.083.0602-.1008.0421-.0237-.0241 0-.0722.0474-.1084.0475-.0421.1542-.1686.2372-.28297.16-.23482.1719-.24686.409-.5419.1007-.1144.1659-.21676.1541-.23482-.0297-.0301-.326.24687-.326.30708 0 .04215-.0652.12644-.3201.42749-.1956.24082-.2846.39742-.2431.46362.0297.0482-1.304 1.9268-1.3693 1.9268-.0533 0-.0177-.1144.083-.2288.415-.5118.9485-1.2464.9188-1.2765-.0118-.0181-.0652.0241-.1126.0903s-.1363.1746-.1897.2408c-.0593.0663-.166.2168-.249.3312-.077.1144-.1778.2348-.2193.2589s-.077.0723-.077.1084c0 .0301-.0534.1204-.1245.1927-.0652.0722-.1067.1806-.0889.2468.0178.0723-.0593.2288-.2134.4336-.1304.1806-.249.3251-.2608.3251-.0534 0-.0178-.1144.0829-.2288.3261-.3974.415-.5901.1897-.3914-.0652.0602-.1185.1265-.1185.1566 0 .0241-.0534.1084-.1245.1806-.0652.0723-.1067.1806-.0889.2469.0178.0722-.0593.2288-.2134.4335-.1304.1806-.249.3251-.2608.3251-.0534 0-.0178-.1144.083-.2288.326-.3974.4149-.59.1896-.3913-.0652.0602-.1185.1264-.1185.1565 0 .0241-.0534.1084-.1245.1806-.0652.0783-.1067.1807-.0889.2469.0178.0783-.083.2649-.3023.56-.1778.2468-.3438.4335-.3616.4154-.0119-.018.0711-.1505.1897-.301.1185-.1445.2134-.283.2134-.3071 0-.0181.0415-.0783.0889-.1265.0474-.0541.0889-.1204.0889-.1565s-.0533 0-.1185.0783c-.3379.4154-.5454.7647-.5039.8369.0474.0783-.4327.7526-.492.6924-.0237-.0241.0059-.0722.0652-.1144.0534-.0421.1008-.1023.1008-.1264 0-.0301.0593-.1144.1304-.1927.1245-.1325.1363-.2348.0178-.1505-.1364.0963-.3853.5419-.3557.6262.0178.0482-.0415.1806-.1304.301-.0889.1205-.2075.277-.2549.3493-.1719.2589-.2904.3913-.2964.3191 0-.0361.0415-.1144.0949-.1686.0533-.0542.083-.1144.0593-.1325-.0593-.0662-.2134.1867-.1897.3071.0296.1264-.5987 1.0416-.6639.9694-.0237-.0241.0118-.0783.0711-.1264.0652-.0422.0949-.1024.0711-.1265-.0652-.0722-.2193.1686-.1837.283.0178.0602-.0415.1987-.1304.3191-.0949.1204-.2845.3854-.4268.5841-.1423.2047-.2727.3552-.2845.3371-.0178-.018.0177-.0963.077-.1746.0652-.0843.1541-.2107.2016-.283.0474-.0722.1363-.1866.1956-.2528.1363-.1686.1304-.2529-.0178-.1265-.0652.0602-.1186.1385-.1186.1746 0 .0422-.0177.0843-.0415.0964-.1067.0421-.3734.5178-.3438.6021.0178.0481-.0415.1866-.1304.3071-.0889.1144-.2193.295-.2845.3973l-.1245.1807-.2015-.1867c-.1126-.1023-.4209-.3974-.6817-.6442-.4327-.4155-.8476-.8008-1.9265-1.7823-.2134-.1927-.492-.4455-.6224-.566-.326-.301-1.0729-.9513-1.4226-1.2403-.1541-.1325-.4031-.3432-.5453-.4636-.3972-.3493-1.7902-1.3909-2.134-1.6016-.3557-.2168-.741-.3372-.9188-.277-.0652.018-.2252.1324-.3497.2468-.2786.259-.3083.1927-.0415-.0843.2371-.2528.1778-.2649-.0771-.012-.1067.1084-.1659.2168-.1482.271.0297.0782-.2311.5659-.3023.5659-.0592 0 .0652-.2769.1364-.3191.1067-.0662.1067-.1686 0-.1264-.1067.0421-.2194.3552-.1719.4817.0178.0542.0118.1144-.0178.1385-.0297.018-.1601.2528-.2905.5178-.1304.2649-.2549.4877-.2786.4997-.0296.0121-.0474.0482-.0474.0843s-.1185.3131-.2608.6142c-.14227.301-.3201.6804-.39123.8489-.07113.1626-.19561.4336-.26674.6022-.12448.2769-.29638.6743-.45643 1.0536-.02964.0843-.09484.2288-.13634.3312-.18968.4215-.31416.7406-.41493 1.0236-.05928.1626-.12448.3251-.14819.3613-.02371.0301-.10077.2348-.17783.4515-.07706.2168-.17783.4576-.21932.5419-.0415.0843-.07706.1807-.07706.2168 0 .0602-.12448.3552-.24304.578-.02963.0602-.05334.1385-.05334.1746 0 .0362-.03557.1506-.08299.2529-.0415.1084-.14226.3673-.2134.5841-.07706.2167-.16004.4154-.17783.4516-.02371.0301-.0652.1565-.08891.2709s-.07113.2469-.10077.3011c-.05335.0963-.49792 1.3487-.59276 1.6859-.03557.1144-.08299.2348-.1067.2709-.02371.0301-.0652.1566-.08891.271-.02372.1144-.06521.2348-.08892.2709-.02371.0301-.0652.1566-.08891.271s-.06521.2348-.08892.2709c-.02371.0301-.14226.3854-.26081.7828-.12448.3974-.24304.7646-.27268.8188-.02963.0542-.07113.1987-.08891.3192-.02371.1204-.0652.2348-.09484.2528-.02964.0181-.05335.0904-.05335.1626 0 .0723-.0415.2107-.08892.3071-.04742.0903-.08891.2047-.08891.2529 0 .0481-.07706.3191-.1719.6081-.08892.295-.2134.6924-.27267.8911-.05335.1987-.13041.4697-.1719.6021-.0415.1325-.11856.3914-.17191.572-.05334.1807-.14819.5179-.21932.7467-.0652.2288-.11855.4515-.11855.4997 0 .0422-.02371.1265-.05928.1867-.02964.0542-.08298.2228-.11262.3733-.07706.3552-.18376.7887-.23118.9031-.01778.0482-.0652.2228-.1067.3914-.04149.1626-.11855.4697-.16597.6744-.26675 1.0778-.44457 1.7943-.53942 2.2157-.1719.7707-.27267 1.2223-.36158 1.6558-.05335.2469-.13041.6383-.17783.8731-.1719.8189-.40901 2.1074-.52756 2.86C.983325 46.778.775857 48.8191.698798 51.36c-.041493 1.4511.017783 2.3784.183757 2.9504.041493.1505.124485.4335.177825.6322.05928.1987.12448.3853.15412.4154.02964.0362.05335.0964.05335.1445 0 .0723.07706.265.33195.837.04742.1023.08299.2167.08299.2529 0 .0361.02371.0662.05334.0662.02964 0 .07114.0843.09485.1806.02371.1024.0652.1807.09484.1807s.05335.0301.05335.0662c0 .0421.08298.2047.18375.3733.09485.1626.16598.3312.1482.3793-.03557.1024.07705.4456.14819.4456.02963 0 .05334.0301.05334.0602 0 .0542.20747.3914.29639.4817.04149.0421.16597.2469.24303.4034.07706.1385.23118.2348.23118.1325 0-.0301-.0415-.0723-.08892-.0903-.04742-.0241-.08891-.0723-.08891-.1144 0-.0603-.0415-.1265-.29046-.4275-.02963-.0362-.07113-.1205-.08891-.1927-.02371-.0723-.07113-.1325-.10077-.1325s-.05335-.0421-.05335-.0903c0-.0421-.03556-.1084-.08299-.1325-.04149-.024-.10077-.1144-.12448-.1987-.02963-.0963-.02371-.1324.01779-.0903.09484.1024.54534.8189.54534.8731 0 .0301.01778.0602.04742.0722.09484.0422.43272.5961.39715.6563-.04149.0603.23118.5179.35566.6082.13634.1023.08299-.0301-.11855-.283-.12448-.1505-.2134-.289-.19561-.3071.05927-.0542.52163.6202.49199.7105-.02371.0542.02964.1686.11262.2649.08299.0964.15412.1445.15412.1024 0-.0422-.05927-.1265-.1304-.1987-.07114-.0662-.11263-.1325-.09485-.1505.01186-.0181.34973.3552.74096.8249.92471 1.1078 3.27205 3.5283 3.89445 4.01.09485.0723.15412.1505.13634.1686s-.12448-.0482-.23118-.1505c-.1067-.1024-.21932-.1867-.25489-.1867-.02963 0 .05928.1144.20154.2469.19562.1806.27267.2228.30824.1626.04149-.0603.0652-.0603.12448 0 .05928.0602.05928.0842 0 .1264-.0652.0421-.05928.0602.01778.0843.05335.0241.07706.0181.05928-.0181-.01778-.0361-.01186-.0602.01778-.0602.07113 0 .70539.5961.63426.5961-.02964 0-.16005-.0903-.29045-.2047-.12448-.1144-.25489-.2108-.28453-.2108s.02964.0723.14226.1626c.1067.0964.23118.2047.2786.2469.04149.0421.11855.0662.16598.0482.07113-.0302.53346.307.78836.5659.0178.0181.166.1385.326.271.166.1264.3083.2529.3261.2709.0177.0241.5927.4697 1.2744.9935.6876.5239 1.2863.9875 1.3337 1.0356.1245.1205-.0178.0964-.166-.0301-.3378-.2829-.486-.3733-.486-.295 0 .0662.6579.4697.7113.4335.0356-.0241.2193.0783.409.2228.1956.1445.409.3011.4801.3492.249.1686.3853.2951.3201.3011-.0593 0-.1422-.0602-.4208-.3011-.0415-.0301-.089-.0602-.1127-.0602-.0177 0-.1007-.0542-.1837-.1204s-.1778-.1204-.2134-.1204c-.0652 0 .3616.3372.6817.5359.1244.0722.2489.1204.2845.0963.0593-.0361.7884.4516.7409.5058-.0177.012-.1126-.0301-.2074-.1024-.0949-.0722-.2075-.1325-.249-.1325s-.0237.0362.0415.0723c.0652.0421.1541.1084.2016.1565.0474.0422.1363.0663.1956.0542.077-.024.4268.1807 1.0847.6262.5335.3613.9959.6563 1.0255.6563.0356 0 .1067-.1264.166-.289.0593-.1565.1422-.3492.1837-.4335s.0771-.1867.0771-.2288c0-.0361.0296-.0723.0593-.0723.0355 0 .0592-.0421.0592-.0963 0-.0783.0652-.2469.2964-.7767.0297-.0662.1067-.2589.1779-.4215.0711-.1686.1481-.3552.1778-.4215.0593-.1385.2786-.6683.3497-.8429.0297-.0663.1067-.2469.1778-.3974.0652-.1505.1245-.3252.1245-.3793 0-.0542.0178-.0964.0474-.0964.0238 0 .0949-.1445.1542-.3191.0592-.1686.16-.4275.2193-.566s.1126-.283.1126-.3131c0-.0361.0296-.0662.0593-.0662.0356 0 .0593-.0422.0593-.0964 0-.0782.0652-.2468.2963-.7767.0297-.0662.1067-.2589.1779-.4215.0711-.1685.1482-.3552.1778-.4214.1482-.3372.2905-.6925.3912-.9634.0593-.1686.1245-.3131.1482-.3312.0178-.018.0593-.1204.083-.2228.0178-.1083.0593-.1986.0889-.1986.0297 0 .0712-.0843.0889-.1927.0237-.1084.0652-.2348.0949-.289.0296-.0482.1067-.2288.1719-.3914.0711-.1686.1482-.3553.1778-.4215s.1067-.2589.1778-.4215c.0712-.1686.166-.3974.2134-.5118.0534-.1144.1186-.2769.1541-.3612.0297-.0843.1008-.2409.1542-.3492.1126-.2349.083-.271-.1542-.1867-.2133.0723-1.7308.0421-2.1754-.0542-.3557-.0722-.9069-.2408-1.0492-.3191-.0593-.0301-.1304-.0542-.166-.0542-.1541 0-1.0491-.4817-1.6597-.8911-.5098-.3432-.8714-.6503-1.4226-1.2223-.409-.4155-.818-.8731-.9188-1.0116-.0949-.1384-.2016-.2829-.2371-.3251-.1245-.1626-.326-.4576-.326-.4877 0-.0181.0415-.0181.0889 0 .0474.0241.0889.0722.0889.1144 0 .0903.1778.289.2193.2469.0297-.0301-.2193-.4155-.2904-.4456-.0297-.012-.0475-.0482-.0475-.0843 0-.0301-.0592-.1325-.1244-.2168l-.1245-.1625.0415.1505c.0237.0843.0711.1566.0948.1686.0652.0241.0711.1325.0059.1325-.077 0-.2548-.3914-.2193-.4878.0178-.0481-.1185-.3853-.3023-.7466-.1778-.3673-.3082-.584-.2904-.4817.0237.0964.0592.1927.0889.2108.0296.018.0711.1084.0889.1987.0237.0903.0652.1625.0889.1625s.0652.0723.0889.1626c.0178.0903.0593.1807.083.1987.0296.0181.0652.0964.0889.1806.0415.1446.0415.1506-.0533.0302-.1423-.1747-.8595-1.704-.8595-1.8244 0-.0301-.0415-.1385-.089-.2288-.0474-.0964-.0889-.2228-.0889-.277s-.0237-.1144-.0533-.1325c-.0297-.018-.0712-.1324-.0949-.2529-.0177-.1204-.0592-.2649-.0889-.3191-.1126-.2167-.4564-1.6979-.5927-2.5951-.0356-.2167-.089-.5298-.1245-.6924-.1838-.9513-.2905-4.4797-.1778-5.9007.0355-.4636.0889-1.0898.1126-1.3969l.0415-.5539.2252.2167c.1245.1144.2134.2228.1956.2409-.0178.0241-.1007-.0362-.1837-.1265l-.1482-.1625.0118.3191c.006.2167.0178.2589.0297.1204.0296-.2107.083-.2408.1956-.1024.0652.0783.0889.0783.1245.0181.0355-.0602.0948-.0301.243.1024.5631.5238.8654.8008 1.0196.9212.0948.0722.1541.1505.1363.1686-.0178.018-.0949-.0241-.1719-.0964-.0771-.0722-.1897-.1565-.2549-.1866-.0652-.0361 0 .0482.1482.1806.1837.1686.2786.2228.3082.1686.0297-.0482.1008-.018.2371.1084.5632.5238.8655.8008 1.0196.9212.0948.0723.1541.1506.1363.1686-.0178.0181-.0948-.0241-.1719-.0963-.077-.0723-.1897-.1566-.2549-.1867-.0652-.0361 0 .0482.1423.1867.1838.1746.2727.2288.3082.1746.0297-.0542.2075.0722.5691.4034.2845.2589.5987.5359.6935.6142.0949.0722.1541.1505.1364.1685-.0178.0181-.0949-.024-.1719-.0963-.0771-.0722-.1897-.1565-.2549-.1927-.0652-.0301.0237.0783.1956.2469.2964.295.4683.4094.3082.2168-.1126-.1385-.0118-.1867.1126-.0542.0593.0602.1838.1806.2786.2649.492.4275 1.0729.9393 1.1559 1.0236.0534.0482.1719.1565.2668.2408.9128.7948 1.1203.9875 1.1381 1.0357.0355.0843-.0771.0542-.1719-.0602-.0534-.0542-.2253-.2168-.3853-.3553-.1601-.1385-.3794-.3372-.492-.4395-.1067-.0964-.2312-.1807-.2668-.1807-.0414 0-.0414.0181.006.0482.0592.0361.4149.3552 1.1321 1.0176.1482.1385.2846.1866.2194.0782-.0949-.1565.1007-.024.4742.3312.2312.2107.3912.3854.3556.3854-.0296 0-.2015-.1325-.3734-.2951-.1719-.1686-.3438-.301-.3734-.301-.0356 0 .0237.0722.1304.1625.1067.0964.2726.2469.3675.3372.1008.0964.2134.1566.2667.1385.1067-.0301.5928.3552.5276.4215-.0178.018-.1245-.0482-.2312-.1505-.1067-.1024-.2193-.1867-.2549-.1867-.0711.006.4505.4817.5216.4817.0297 0 .0297-.0241.0119-.0602-.0889-.1445.0711-.0362.4505.3071.2312.2047.3972.3853.3853.4034-.0178.012-.1838-.1144-.3734-.283-.1838-.1686-.3616-.3071-.3913-.3071-.0237 0 .0178.0602.0949.1325.4268.4034.5512.4937.6698.4997.1304 0 .5928.3733.5394.4335-.0178.0181-.1245-.0542-.2312-.1565-.1067-.1024-.2193-.1867-.2548-.1867-.0297.0061.0592.1084.2074.2409.1838.1625.2786.2167.3083.1625.0296-.0481.1007-.018.2371.1084.5631.5239.8654.8008 1.0195.9213.0949.0722.1541.1505.1363.1685-.0177.0181-.1244-.0481-.2311-.1505-.1067-.1023-.2194-.1866-.2549-.1866-.0297.006.0593.1083.2075.2408.1837.1626.2785.2168.3082.1626.0296-.0482.1008-.0181.2371.1084.5631.5238.8654.8008 1.0195.9212.0949.0722.1542.1505.1364.1686-.0178.018-.1245-.0482-.2312-.1506-.1067-.1023-.2193-.1866-.2549-.1866-.0296.006.0593.1144.2075.2408.1482.1325.2786.2108.2845.1807.0119-.0362.0593-.0602.1067-.0602s.083-.0301.083-.0663c0-.0542.0771-.2408.2964-.7466.1482-.3372.2904-.6924.3912-.9634.0593-.1686.1245-.3131.1482-.3311.0178-.0181.0593-.1204.083-.2288.0178-.1024.0593-.1927.077-.1927.0237 0 .0949-.1445.1542-.3191.0948-.277.2074-.56.3912-.9754.0296-.0663.1067-.2589.1778-.4215.0711-.1686.166-.3974.2134-.5118.0534-.1144.1186-.277.1541-.3613.0297-.0843.0949-.2348.1364-.3311.1837-.4155.3141-.7406.4208-1.0236.0593-.1686.1245-.3131.1482-.3312.0178-.0181.0593-.1204.083-.2288.0178-.1023.0593-.1927.0889-.1927.0297 0 .0711-.0843.0889-.1926.0237-.1084.0652-.2349.0949-.2891.0237-.0481.0889-.1866.1363-.301.166-.4034.3379-.8129.3912-.9333.0475-.1084.166-.3914.3675-.873.0297-.0843.0949-.2349.1364-.3312.1837-.4094.3141-.7406.4208-1.0236.0593-.1686.1423-.3673.1838-.4516s.0771-.1866.0771-.2288c0-.0361.0296-.0722.0592-.0722.0356 0 .0593-.0422.0593-.0964 0-.0782.0652-.2468.2964-.7767.0296-.0662.1067-.2589.1778-.4215.0712-.1686.1482-.3552.1778-.4214.1482-.3372.2905-.6925.3913-.9634.0593-.1686.1245-.3131.1482-.3312.0177-.018.0592-.1204.083-.2288.0177-.1023.0592-.1927.077-.1927.0237 0 .0949-.1445.1541-.3191.0593-.1686.1601-.4275.2194-.566.0592-.1384.1126-.283.1126-.3131 0-.0361.0296-.0662.0593-.0662.0355 0 .0592-.0421.0592-.0963 0-.0482.0534-.2168.1245-.3733.1304-.3071.2608-.6142.3616-.855.0296-.0843.0948-.2349.1363-.3312.1838-.4155.3142-.7406.4209-1.0236.0593-.1686.1245-.3131.1482-.3311.0178-.0181.0593-.1205.083-.2288.0178-.1024.0592-.1927.0889-.1927.0296 0 .0711-.0843.0889-.1927.0237-.1084.0652-.2348.0948-.289.0297-.0482.1067-.2288.1719-.3914.1542-.3612.2846-.6804.3557-.8429.0474-.1084.1838-.4336.3675-.8731.0297-.0843.0949-.2348.1364-.3312.1837-.4094.3141-.7406.4208-1.0235.0593-.1686.1423-.3673.1838-.4516s.077-.1867.077-.2288c0-.0362.0297-.0723.0593-.0723.0356 0 .0593-.0421.0593-.0963 0-.0783.0652-.2469.2964-.7767.0296-.0663.1067-.259.1778-.4215.0711-.1686.1482-.3553.1778-.4215.0297-.0662.1067-.2589.1779-.4215.0652-.1686.1422-.3432.1719-.3913.0296-.0542.0711-.1807.0948-.2891.0178-.1083.0593-.1926.0889-.1926.0237 0 .0652-.0964.083-.2108.0237-.1144.0593-.2107.083-.2107s.0948-.1445.1541-.3191c.0593-.1686.16-.4275.2193-.566s.1126-.283.1126-.3131c0-.0361.0297-.0662.0593-.0662.0356 0 .0593-.0422.0593-.0964 0-.0783.0652-.2468.2964-.7767.0296-.0662.1067-.2589.1778-.4215.0711-.1686.1482-.3552.1778-.4215.1482-.3371.2905-.6924.3913-.9633.0592-.1686.1244-.3131.1482-.3312.0177-.0181.0592-.1204.0829-.2288.0178-.1024.0593-.1927.089-.1927.0296 0 .0711-.0843.0889-.1927.0237-.1083.0652-.2348.0948-.289.0297-.0481.1067-.2288.1719-.3913.0711-.1686.1482-.3553.1778-.4215.0297-.0662.1067-.2589.1779-.4215.0711-.1686.1659-.3974.2134-.5118.0533-.1144.1185-.277.1541-.3613.0296-.0842.0948-.2348.1363-.3311.1838-.4094.3142-.7406.4209-1.0236.0593-.1686.1422-.3673.1837-.4516s.0771-.1866.0771-.2288c0-.0361.0296-.0722.0593-.0722.0355 0 .0593-.0422.0593-.0964 0-.0783.0652-.2468.2963-.7767.0297-.0662.1067-.2589.1779-.4215.0711-.1686.1482-.3552.1778-.4215.0296-.0662.1067-.2589.1778-.4214.0652-.1686.1423-.3432.1719-.3914.0297-.0542.0712-.1806.0949-.289.0178-.1084.0652-.1927.0889-.1927.0296 0 .0711-.0963.0948-.2107.0178-.1144.0534-.2108.0771-.2108.0355 0 .1778-.3913.2727-.7647.0355-.1204-.0238-.2288-.249-.4696-.0415-.0482-.0771-.1024-.0771-.1325s-.0533-.0963-.1185-.1565c-.249-.21075-.1245.0181.2489.4576.089.1084.166.2168.166.2529-.0059.0301-.077-.0241-.166-.1265-.326-.3853-.4564-.596-.4386-.71647.0119-.12645-.2075-.4275-.2727-.36729-.0178.02408.0297.10236.1067.18665.0771.0843.1245.16258.1067.18666-.0593.05415-.3556-.38535-.3141-.45761.0415-.06623-.0415-.22278-.2431-.46362-.2667-.30708-.3201-.38535-.3201-.43954 0-.03011-.0355-.07828-.077-.10236-.0474-.02409-.1423-.14451-.2253-.25891-.077-.1144-.2015-.26492-.2726-.33718-.0771-.07225-.1364-.15053-.1364-.18064 0-.0301-.0474-.09633-.1008-.15052-.0592-.04817-.1837-.19268-.2845-.31912-.2489-.32514-.3319-.40944-.3794-.36728-.0177.02408.006.07225.0534.10837.0533.04215.1956.20472.326.37331.1304.16257.2668.33116.2964.37331.0356.04215.0889.10838.1186.15053.0355.04214.1659.21074.2963.37933.1304.16257.2549.32514.2846.36126.0237.03011.1244.15655.2193.27095.0948.1144.1778.2288.1778.25289s.0593.09634.1304.16859c.0712.06623.1126.13247.0949.15053-.0178.01806-.1897-.16257-.3794-.40342-.1897-.24084-.4387-.55996-.5572-.70447-.1126-.1445-.4327-.55394-.7113-.90316-.2786-.34923-.5631-.70447-.6343-.78876-.0652-.0843-.2371-.28902-.3734-.45159-.6698-.81887-1.0077-1.20422-1.7487-2.00503-.1778-.19268-.2193-.27095-.16-.30707.0652-.04215.0593-.05419-.0178-.0843-.0593-.0301-.083-.01806-.0533.02409.0237.04214.0059.06021-.0415.04214-.0475-.01806-.083-.10235-.083-.19267-.006-.18063-.1482-.3131-.2194-.1987-.0296.05419-.0592.05419-.1185-.00602s-.0593-.09032.0119-.13849c.0711-.04816.0652-.05418-.0297-.0301-.0889.02408-.2312-.07225-.5335-.35524-.4445-.41546-.486-.52987-.0652-.18064.2668.22278.4446.30106.2016.09032-.3676-.32514-.4328-.36127-.5098-.33116-.0474.01806-.1719-.03011-.2727-.10839-.4446-.3432-.9128-.46362-1.2863-.32513m-1.5352 1.10186c0 .06021-.8358.8851-.8655.84898-.0118-.01205.1541-.21676.3735-.45159.3734-.39137.492-.48771.492-.39739m4.2916.42148c.0237.06021.0059.0843-.0356.07225-.0889-.03011-.1363-.16859-.0593-.16859.0297 0 .0771.04215.0949.09634m-1.6538-1.42098c.0178.03011.083.06021.1363.06021.0889 0 .0889-.01204.0119-.06021-.1186-.07827-.1956-.07827-.1482 0"/>
  <path fill="currentColor" d="M33.8401 2.40846c-.0474.07827.0297.07827.1482 0 .0771-.04817.0771-.06021-.0119-.06021-.0533 0-.1185.02408-.1363.06021m2.1636 0c.1185.07827.1956.07827.1481 0-.0177-.03613-.0829-.06021-.1363-.06021-.0889 0-.0889.01204-.0118.06021m-2.5074.27091c-.0889.08429-.1422.15053-.1126.15053.0297 0 .1304-.06624.2253-.15053.0948-.0843.1482-.15053.1126-.15053-.0296 0-.1363.07225-.2253.15053m3.379.4576c.0417.04215.0894.06021.1073.04215.0178-.01806-.012-.05419-.0716-.07225-.0834-.03613-.0893-.03011-.0357.0301m.9718.9995c.3972.45761.7884.855.8062.83694.0355-.03011-.1126-.20472-.5335-.64426-.3557-.36127-.5394-.48771-.2727-.19268m-6.1942.41547c-.2134.22278-.3912.43352-.3912.46965 0 .06021.2905-.22881.7054-.70447.2786-.3131.0711-.16257-.3142.23482m7.0776.57806c.3023.36728.5335.59609.5335.5419 0-.07828-.4742-.61416-.5453-.61416-.0297 0-.0237.03613.0118.07226m-7.8424.28898c-.1541.1686-.2786.31912-.2786.33719 0 .01806-.0948.12644-.2075.24686-.1126.12042-.2074.24687-.2074.28299.0059.06021.0889-.0301.6105-.62619.0712-.0843.1956-.2288.2727-.31912.083-.09032.1304-.17461.1126-.19267-.0178-.01807-.1541.10837-.3023.27094m8.4351.40947c.006.07827.415.4576.415.38535 0-.04215-.0237-.07225-.0474-.07225-.0297 0-.089-.06624-.1305-.14451-.0711-.14451-.2371-.25891-.2371-.16859m.5098.62616c.2786.32513.3201.36728.3201.30707 0-.09634-.2905-.43954-.3675-.43954-.0356 0-.0178.06021.0474.13247m-9.9228.14452c-.1067.12042-.1897.2288-.1897.24686 0 .01204-.0652.09634-.1481.18666-.3201.35524-.6224.74661-.6224.80682 0 .0843.1126-.03612.5334-.58404.1779-.23483.3972-.50578.4861-.60211.1482-.15655.2075-.27095.1482-.27095-.0119 0-.1067.09633-.2075.21676m-1.1915 1.47516c-.0711.07827-.1245.17461-.1245.22278 0 .04215.0712-.00602.1542-.10838.1837-.21676.1541-.3131-.0297-.1144m-.3556.45161c-.1779.2288-.1541.33116.0237.12042.1363-.16257.1897-.27697.1245-.27697-.0178 0-.083.07225-.1482.15655m-.3261.41543c-.0534.05419-.0949.13246-.0949.16859s.0593.01204.1304-.06623c.0712-.07226.1127-.14451.0949-.16257-.0178-.01807-.0771.00602-.1304.06021m-1.2449 1.62577c-.0533.0542-.0948.1324-.0948.1686 0 .0361.0592.012.1304-.0663.0711-.0722.1126-.1445.0948-.1626-.0178-.018-.077.0061-.1304.0603m-14.6885 2.1195c.0417.0179.0953.0119.1132-.006.0239-.0178-.0119-.0357-.0775-.0298-.0655 0-.0834.0179-.0357.0358m-.2371.0602c.0417.0179.0954.0119.1133-.006.0238-.0179-.012-.0357-.0775-.0298-.0656 0-.0834.0179-.0358.0358m.4742 0c.0358.0119.1073.0119.149 0 .0358-.0179.006-.0298-.0775-.0298-.0834 0-.1132.0119-.0715.0298m.3259.1504c.089.0301.1601.0783.1601.1084 0 .0241.0652.0662.1482.0843.083.0241.1482.0662.1482.0963 0 .0362.0296.0602.0652.0602.0355 0 .1245.0482.2015.1024.0711.0602.1956.1505.2668.1987.0711.0482.1837.1385.2489.1927.1008.0903.3023.1625.2193.0843-.2489-.2469-1.4226-.9995-1.5411-.9935-.0475 0-.0119.0301.0829.0662m-1.9087 1.2584c-.077.1325-.1185.2589-.1007.277.0177.0181.0533-.0181.077-.0783.0178-.0602.0593-.1264.0771-.1445.0474-.0361.1363-.301.1067-.301-.0178 0-.0889.1083-.1601.2468m3.6101-.0662c.1126.0963.2134.1626.2252.1505.0356-.0301-.3023-.3251-.3734-.3311-.0297 0 .0356.0782.1482.1806m.4207.3131c.3498.3191.6106.5298.658.5298.0296 0-.0296-.0722-.1423-.1626-.1067-.0963-.2489-.2167-.3141-.2769s-.1719-.1385-.2371-.1686c-.0889-.0482-.0771-.0241.0355.0783m-4.2733.1867c0 .0542-.0238.1023-.0596.1023-.0298 0-.0596.0241-.0596.0602 0 .0301.0239.0603.0537.0603.0715 0 .1489-.2349.1013-.283-.0179-.0241-.0358.006-.0358.0602m49.0092.3913c.0712.0963.1304.2107.1304.2469 0 .0361.0238.0662.0534.0662s.0711.0783.0948.1806c.0237.0964.0593.1807.089.1807.0296 0 .0652.0782.0889.1806.0237.0963.0592.1806.0889.1806.0296 0 .0652.0482.077.1024.0178.0722.0297.0783.0297.0181.0059-.1385-.5987-1.2886-.6936-1.3126-.0592-.0181-.0414.0301.0415.1565m-43.8527.1987c.1127.0963.2608.2107.3261.2408.0652.0301 0-.0481-.1482-.1806-.1482-.1385-.2905-.2469-.3261-.2469-.0296 0 .0356.0843.1482.1867m43.6274-.0843c-.006.0602-.0534.2168-.1186.3492-.0652.1325-.1126.277-.1185.3131 0 .0422-.0238.0783-.0593.0783-.0297 0-.0593.0421-.0593.0963 0 .0783-.0652.2469-.2964.7768-.0296.0662-.1067.2528-.1778.4214-.0711.1626-.1482.3553-.1778.4215-.1482.3372-.2905.6924-.3913.9634-.0592.1626-.1244.3131-.1481.3312-.0178.018-.0593.1204-.083.2227-.0178.1084-.0593.1987-.089.1987-.0296 0-.0711.0843-.0889.1927-.0237.1084-.0652.2348-.0948.289-.0237.0482-.0889.1867-.1363.3011-.166.4034-.3379.8128-.3913.9332-.0474.1084-.1659.3914-.3675.8731-.0296.0843-.0948.2288-.1363.3312-.1838.4094-.3142.7406-.4209 1.0235-.0593.1626-.1422.3673-.1837.4516s-.0771.1867-.0771.2228c0 .0422-.0237.0783-.0593.0783-.0296 0-.0592.0421-.0592.0963 0 .0783-.0653.2469-.2964.7767-.0297.0663-.1067.2529-.1779.4215-.0711.1626-.1481.3553-.1778.4215-.0296.0662-.1067.2529-.1778.4215-.0652.1625-.1423.3432-.1719.3914-.0297.0541-.0711.1806-.0949.289-.0177.1083-.0592.1926-.0889.1926-.0296 0-.0711.0904-.0889.1927-.0237.1084-.0652.2108-.083.2288-.0237.0181-.1067.2047-.1837.4215-.0771.2168-.1779.4576-.2194.5419-.0414.0843-.077.1867-.077.2228 0 .0421-.0237.0782-.0593.0782-.0296 0-.0593.0422-.0593.0964 0 .0783-.0652.2469-.2963.7767-.0297.0662-.1067.2529-.1779.4215-.0711.1626-.1482.3552-.1778.4215-.1482.3371-.2905.6924-.3912.9633-.0593.1626-.1245.3131-.1482.3312-.0178.0181-.0593.1204-.083.2228-.0178.1084-.0593.1987-.0889.1987-.0297 0-.0712.0843-.0889.1927-.0237.1083-.0652.2348-.0949.289-.0237.0481-.0889.1866-.1363.301-.166.4034-.3379.8129-.3912.9333-.0475.1084-.166.3914-.3676.8731-.0296.0843-.0948.2288-.1363.3311-.1837.4095-.3142.7406-.4209 1.0236-.0592.1626-.1422.3673-.1837.4516s-.0771.1866-.0771.2228c0 .0421-.0237.0782-.0592.0782-.0297 0-.0593.0422-.0593.0964 0 .0783-.0652.2468-.2964.7767-.0296.0662-.1067.2529-.1778.4215-.0712.1626-.1482.3552-.1779.4215-.0474.1083-.1659.3913-.3675.873-.0296.0843-.0948.2288-.1363.3312-.1838.4094-.3142.7406-.4209 1.0236-.0592.1625-.1422.3673-.1837.4515-.0415.0843-.0771.1867-.0771.2228 0 .0422-.0237.0783-.0593.0783-.0296 0-.0592.0422-.0592.0963 0 .0783-.0652.2469-.2964.7768-.0297.0662-.1067.2529-.1779.4214-.0711.1626-.1481.3553-.1778.4215-.1482.3372-.2904.6924-.3912.9634-.0593.1626-.1245.3131-.1482.3312-.0178.018-.0593.1204-.083.2227-.0178.1084-.0593.1987-.077.1987-.0238 0-.0949.1445-.1542.3131-.0948.283-.2074.566-.3912.9815-.0296.0662-.1067.2529-.1778.4214-.0711.1626-.166.3974-.2134.5118-.0534.1144-.1186.277-.1541.3613-.0297.0843-.0949.2288-.1364.3312-.1837.4154-.3141.7406-.4208 1.0236-.0593.1625-.1245.3131-.1482.3311-.0178.0181-.0593.1204-.083.2228-.0178.1084-.0593.1987-.0889.1987-.0297 0-.0711.0843-.0889.1927-.0237.1084-.0652.2348-.0949.289-.0296.0482-.1067.2228-.1719.3914-.0711.1625-.1482.3552-.1778.4214-.0296.0663-.1067.2529-.1778.4215-.0712.1626-.166.3974-.2134.5118-.0534.1144-.1127.2649-.1364.3312-.0296.0662-.1067.2468-.1778.3974-.2312.5057-.1185.5539.3082.1384.1542-.1565.2964-.2649.3201-.2468.0178.0241 0 .0783-.0415.1324-.16.1927.0119.0783.3083-.2167.1719-.1686.2608-.277.1956-.2469-.0652.0361-.1778.1204-.2549.1927-.0771.0722-.1541.1144-.1719.0963-.0237-.018-.0237-.0421-.0119-.0542.0297-.018.7825-.6623.824-.7044.2845-.289.5394-.4938.569-.4637.0238.0241.006.0783-.0355.1325-.1601.1927.0118.0783.3082-.2167.1719-.1686.2608-.277.1956-.2469-.0652.0361-.1778.1204-.2549.1927-.077.0722-.1541.1144-.1719.0963-.0177-.0181.0415-.0963.1364-.1686.1541-.1204.4564-.3974 1.0195-.9212.1482-.1325.2075-.1626.2431-.1024.0355.0602.1126.0181.3082-.1686.1423-.1385.2075-.2228.1423-.1866-.0652.0301-.1779.1144-.2549.1866-.0771.0723-.1541.1144-.1719.0964-.0178-.0181.0415-.0964.1363-.1686.1541-.1204.4564-.3974 1.0196-.9213.1363-.1264.2074-.1565.2371-.1083.0296.0542.1244 0 .3082-.1686.1482-.1325.2134-.2168.1482-.1807-.0652.0301-.1778.1144-.2549.1867s-.1541.1144-.1719.0963c-.0178-.018.0415-.0963.1363-.1686.1542-.1204.4565-.3973 1.0196-.9212.1363-.1264.2075-.1565.2371-.1084.0296.0542.1245 0 .3082-.1625.1482-.1325.2431-.2349.2075-.2409-.0296 0-.1482.0843-.2549.1867-.1067.1023-.2134.1686-.2312.1505-.0177-.0181.0415-.0963.1364-.1686.1541-.1204.4564-.3974 1.0195-.9212.1364-.1265.2075-.1566.2371-.1084.0297.0542.1245 0 .3083-.1626.1482-.1324.243-.2348.2074-.2408-.0296 0-.1482.0843-.2549.1866-.1067.1024-.2134.1747-.2311.1566-.0534-.0602.409-.4335.5394-.4335.1185-.006.243-.0964.6698-.4998.0771-.0722.1186-.1324.0948-.1324-.0296 0-.2074.1384-.3912.307-.1897.1686-.3556.2951-.3734.283-.0119-.018.166-.2047.4031-.4154.2371-.2108.5334-.4817.6579-.5961.1304-.1144.2905-.2108.3616-.2108.1186-.006.2371-.0963.6698-.4997.0771-.0723.1186-.1325.0949-.1325-.0297 0-.2016.1325-.3853.3011-.1838.1625-.3557.301-.3853.301-.0593-.006.7647-.7827.8299-.7827.0296 0 .0296.0241.0118.0602-.0652.1084.0711.0602.2193-.0783.7173-.6623 1.0729-.9814 1.1322-1.0175.0474-.0301.0474-.0482.0059-.0482-.0711 0-.0889.012-.7646.6322-.4505.4155-.5987.5238-.5572.4094.0178-.0481.2252-.2348 1.144-1.0416.0949-.0843.2134-.1927.2668-.2408.0829-.0843.5512-.4998 1.1558-1.0236.0949-.0843.249-.2288.3438-.3252.2075-.2047.3024-.1565.1067.0542-.077.0843-.1126.1505-.077.1505s.0889-.0481.1126-.1083c.0356-.0723.0593-.0061.0889.2288.0356.3251.0356.3251.0356-.1084 0-.2409.0237-.4636.0593-.4998.0415-.0421.077.1987.1067.8008.0177.4757.0652 1.0899.0948 1.3728.0711.6925.0652 2.8059-.0118 3.6669-.1897 2.1435-.3142 2.9985-.6106 4.1907-.0474.1987-.1185.4937-.16.6623-.0356.1626-.089.3252-.1127.3613-.0237.0301-.0652.1565-.0889.2709s-.0652.2469-.0889.3011c-.0296.0482-.0948.2228-.1482.3914-.1245.3612-.1837.4997-.5038 1.2042-.249.5599-.9188 1.7521-1.0137 1.8123-.0829.0482-.0592-.0782.0297-.1686.0415-.0481.1007-.1505.1245-.2288.0237-.0843-.0652.0121-.2016.2108-.2193.3311-.3497.6262-.16.3552.0474-.0602.1007-.1023.1185-.0843.0237.0301-.243.4215-.5868.849-.1186.1505-.2668.2649-.2668.2107 0-.012.0356-.0662.0771-.1083.1423-.1566.5157-.6383.5157-.6744 0-.0723-.1778.0421-.2075.1325-.0177.0602-.1244.2047-.2371.3311-.1363.1505-.2015.271-.1778.3372.0178.0723-.0948.2288-.3853.5118-.2312.2288-.4327.3974-.4564.3793-.0178-.0241 0-.0782.0415-.1324.1304-.1626.0118-.0964-.2193.1204-.1245.1144-.1957.2107-.1542.2107.0356 0 .1127-.0421.166-.0963.0534-.0542.1126-.0843.1304-.0602.0237.018.0237.0421.0119.0542-.0119.006-.1304.0963-.2608.1987-.5869.4576-1.0552.7526-1.6598 1.0476-.8891.4275-1.0966.5058-1.8376.6684-.4505.1023-1.8375.1385-2.2525.0542-.9484-.1867-1.6182-.4336-2.6022-.9393-.5927-.3071-1.5352-.9273-1.4878-.9754.0178-.0181.1126.024.2074.0963.0949.0722.2075.1325.249.1325s.0237-.0362-.0415-.0723c-.0652-.0421-.1541-.1084-.2015-.1565-.0474-.0422-.1364-.0663-.2075-.0482-.083.018-.1956-.0301-.3319-.1445-.1127-.0964-.1779-.1807-.1423-.1807s.1245.0542.2015.1205c.0771.0662.166.1204.1956.1204.0356 0-.0237-.0662-.1363-.1505s-.243-.1385-.2904-.1205c-.0534.0121-.2016-.0662-.332-.1806-.2667-.2408-.4446-.2709-.4446-.0903 0 .0662-.0237.1204-.0533.1204-.0297 0-.0711.0963-.0889.2108-.0237.1144-.0593.2107-.083.2107s-.0949.1445-.1541.3131c-.0593.1746-.1601.4335-.2194.572-.0592.1385-.1126.283-.1126.3131 0 .0361-.0237.0662-.0593.0662-.0296 0-.0592.0422-.0592.0964 0 .0481-.0534.2167-.1245.3733-.1304.307-.2608.6141-.3616.855-.0296.0843-.0948.2288-.1363.3311-.1838.4155-.3142.7406-.4209 1.0236-.0593.1626-.1245.3131-.1482.3312-.0178.018-.0593.1204-.083.2228-.0178.1083-.0593.1987-.077.1987-.0237 0-.0949.1445-.1542.313-.0948.283-.2074.566-.3912.9815-.0296.0662-.1067.2529-.1778.4215-.0711.1625-.166.3974-.2134.5118-.0533.1144-.1186.2769-.1541.3612-.0297.0843-.0949.2288-.1364.3312-.1837.4094-.3141.7406-.4208 1.0236-.0593.1625-.1423.3673-.1838.4516s-.077.1866-.077.2227c0 .0422-.0237.0783-.0593.0783-.0296 0-.0593.0422-.0593.0964 0 .0782-.0652.2468-.2964.7767-.0296.0662-.1067.2529-.1778.4215-.0711.1625-.1482.3552-.1778.4214-.0297.0663-.1067.2529-.1779.4215-.0652.1626-.1422.3432-.1719.3914-.0296.0542-.0711.1806-.0948.289-.0178.1084-.0593.1927-.0889.1927-.0237 0-.0652.0963-.083.2107-.0237.1144-.0593.2107-.083.2107s-.0948.1446-.1541.3131c-.0593.1747-.1601.4336-.2193.572-.0593.1385-.1127.283-.1127.3131 0 .0362-.0237.0663-.0592.0663-.0297 0-.0593.0421-.0593.0963 0 .0482-.0534.2168-.1245.3733-.1304.3071-.2608.6142-.3616.855-.0296.0843-.0948.2288-.1363.3312-.1838.4154-.3142.7406-.4209 1.0236-.0592.1625-.1244.3131-.1482.3311-.0177.0181-.0592.1205-.0829.2288-.0178.1024-.0593.1927-.089.1927-.0296 0-.0711.0843-.0889.1927-.0237.1084-.0652.2348-.0948.289-.0297.0482-.1067.2228-.1719.3914-.0712.1625-.1482.3552-.1778.4214-.0297.0663-.1067.2529-.1779.4215-.0711.1626-.166.3974-.2134.5118-.0533.1144-.1185.277-.1541.3613-.0296.0843-.0948.2288-.1363.3311-.2786.6383-.5632 1.3729-.5632 1.4632 0 .0241.1542.0782.3439.1204.1837.0421.5275.1144.7528.1686.6876.1505 1.3692.2047 1.8909.1445.6639-.0783 1.6419-.289 1.962-.4215.0652-.0241.3083-.1084.5335-.1806.4387-.1385 1.6005-.566 1.8969-.6985.1007-.0421.4445-.1926.7705-.3311 1.1322-.4817 1.6539-.7286 3.2899-1.5535 1.1737-.5961 1.6716-.861 2.5489-1.3487.8298-.4576.9899-.5539 1.2033-.6864.1245-.0783.2845-.1686.3556-.1987.0712-.0361.1719-.0843.2194-.1204.0474-.0301.6105-.3733 1.2448-.7587 1.1618-.7045 1.3218-.8068 2.8571-1.8123.8536-.554.9662-.6323 1.8672-1.2705.2727-.1866.6639-.4636.8773-.6141.2134-.1506.7054-.5058 1.0907-.8009.3971-.295.7409-.5117.7883-.4937.0415.0181.1719-.0361.2846-.1204.1126-.0843.1719-.1505.1363-.1505-.0296 0-.1185.0542-.1956.1204-.1304.1144-.2371.1565-.2371.0903 0-.012.2727-.2348.6105-.4877.6343-.4877 1.5827-1.2464 1.9443-1.5595.1126-.0963.3379-.289.4979-.4214.1601-.1325.4861-.4095.7173-.6202.403-.3492.5512-.4516.4682-.3131-.1007.1626.1127.0241.4209-.277.1956-.1806.3023-.3131.249-.283-.0593.0301-.2134.1566-.3438.283-.1364.1265-.2609.2168-.2786.1927-.0237-.0181.077-.1385.2252-.2589.5928-.5058 2.9461-2.8902 3.3254-3.3718.1067-.1385.2312-.265.2727-.283.0948-.0422.0415.0481-.1423.2649-.2964.3432-.3793.4395-.3793.4757 0 .018.1481-.1205.3319-.3131.2193-.2349.3142-.3854.2964-.4516-.0237-.0662.0711-.2288.2667-.4636.4683-.56.4802-.5781.7884-.9815.1541-.2107.3023-.3612.326-.3432.0178.0241-.0118.0723-.0711.1144-.0534.0422-.1008.1024-.1008.1325 0 .0542-.0889.1626-.5453.7044-.0889.1084-.1482.2048-.1304.2168.0237.0241.16-.1144.4683-.4877.2608-.3191.4564-.6443.4149-.7105-.0237-.0361.1185-.301.3142-.5901.7172-1.0597 1.4344-2.3964 1.7071-3.1731.0534-.1686.1245-.3311.1482-.3612.0178-.0362.0593-.1566.083-.271s.0652-.2408.0889-.2709c.0237-.0362.0771-.2228.1126-.4215.0415-.1987.1008-.4998.1364-.6623.083-.3673.077-3.0829-.0119-4.2449-.2134-2.9082-.7172-6.3041-1.393-9.3929-.0533-.2469-.1304-.6262-.1778-.843-.1008-.4757-.3557-1.5775-.5335-2.288-.0474-.1807-.1245-.4938-.1719-.6925-.0474-.1986-.1304-.5238-.1838-.7225-.0533-.1987-.1304-.5118-.1778-.6924-.1778-.7165-.2193-.8791-.2667-.9935s-.1008-.3191-.2549-.9453c-.0415-.1505-.0889-.3011-.1186-.3251-.0237-.0241-.0415-.0904-.0415-.1506s-.0355-.2288-.0829-.3673c-.0475-.1445-.1423-.4636-.2134-.7105-.2016-.6864-.2964-1.0115-.4446-1.4751-.0771-.2348-.1956-.6262-.2668-.8731-.077-.2468-.1719-.5359-.2134-.6442-.0474-.1024-.0829-.2288-.0829-.277s-.0415-.1686-.089-.2589c-.0474-.0964-.0889-.2168-.0889-.271s-.0415-.1806-.0889-.2709c-.0474-.0964-.0889-.2288-.0889-.3011 0-.0662-.0237-.1445-.0474-.1806-.0297-.0301-.1126-.2469-.1838-.4757-.0711-.2348-.1541-.4756-.1837-.5419-.0297-.0662-.1482-.4215-.2727-.7827-.1186-.3673-.2371-.6924-.2608-.7225-.0237-.0362-.0652-.1506-.0889-.259-.0237-.1083-.0771-.2709-.1245-.3612s-.083-.1927-.083-.2288c0-.0422-.0415-.1506-.0889-.2409-.0474-.0963-.0889-.2228-.0889-.2769 0-.0542-.0237-.1205-.0593-.1385-.0296-.0181-.0593-.0783-.0593-.1265 0-.0481-.0533-.2047-.1126-.3432s-.1601-.4034-.2193-.584c-.0652-.1807-.1304-.3432-.1542-.3492-.0296-.0121-.0474-.0663-.0474-.1205-.0059-.0602-.0533-.2107-.1185-.3432-.0652-.1324-.1126-.2769-.1186-.3191 0-.0421-.0237-.1204-.0593-.1806-.1007-.1867-.2963-.6684-.2963-.7346 0-.0301-.0237-.1084-.0593-.1686-.0296-.0542-.1126-.2408-.1778-.4034-.0712-.1686-.1482-.3552-.1779-.4215-.0296-.0662-.1067-.2589-.1778-.4215-.0711-.1685-.1482-.3552-.1778-.4214-.0297-.0663-.0889-.2168-.1423-.3312-.0474-.1144-.1778-.4155-.2904-.6623-.1067-.2469-.2372-.5419-.2846-.6563-.3793-.9092-.7587-1.4631-.7646-1.1079m-49.0808.0181c0 .0301.0298.0602.0596.0602.0358 0 .0596-.0301.0596-.0602 0-.0361-.0238-.0602-.0596-.0602-.0298 0-.0596.0241-.0596.0602m-.1777.3612c0 .0301.0298.0602.0596.0602.0357 0 .0596-.0301.0596-.0602 0-.0361-.0239-.0602-.0596-.0602-.0298 0-.0596.0241-.0596.0602m6.3425.3011c.1482.1324.2905.2408.3142.2408.0296 0-.0178-.0602-.1067-.1385-.0889-.0722-.2016-.1806-.2549-.2408-.0534-.0542-.1245-.1024-.1601-.1024-.0296.006.0593.1144.2075.2409m6.7278-.1927c-.083.0602-.3379.4395-.3141.4636.0355.0361.1304-.0482.2726-.2589.1364-.1987.1542-.289.0415-.2047m-13.1591.1927c-.02384.1024-.0298.2047-.01192.2168.01192.0181.04172-.0602.06552-.1626.0477-.2529 0-.301-.0536-.0542m-.23143.4877c-.0652.1264-.09484.2529-.07706.277.02371.018.04149-.0061.04149-.0602 0-.0603.02371-.1024.05335-.1024.04742 0 .14819-.295.11263-.3312-.01186-.012-.07113.0843-.13041.2168m7.16653-.0301c.1008.0843.2431.2107.3261.289.326.289.3023.2047-.0238-.1084-.1956-.1866-.3793-.3372-.4149-.3372s.0178.0723.1126.1566m43.3014.0843c0 .0301.0298.0602.0596.0602.0357 0 .0596-.0301.0596-.0602 0-.0362-.0239-.0602-.0596-.0602-.0298 0-.0596.024-.0596.0602m.1482.271c.0237.0963.0593.1926.089.2107.0296.0181.0711.1084.0889.1987.0237.0903.0652.1626.0948.1626.0771 0 .0711-.0061-.1304-.3974-.1186-.2349-.166-.2951-.1423-.1746m-37.9725.036c-.0415.0723-.1304.1807-.1838.2469-.0592.0723-.1067.1505-.1067.1806 0 .0723.1956-.1264.3261-.3311.1244-.1927.0948-.277-.0356-.0964m-12.85712.0542c0 .0301.0298.0602.05959.0602.03575 0 .05959-.0301.05959-.0602 0-.0361-.02384-.0602-.05959-.0602-.02979 0-.05959.0241-.05959.0602m-.14222.3674c-.06521.1264-.09485.2529-.07706.2769.02371.0181.04149-.006.04149-.0602 0-.0602.02371-.1023.05335-.1023.04742 0 .14819-.2951.11262-.3312-.01185-.012-.07113.0843-.1304.2168m8.52994.0842c.1956.1807.3794.3312.4031.3312.0296 0-.0593-.1024-.2015-.2288-.1364-.1204-.2905-.271-.3438-.3312-.0475-.0542-.1186-.1023-.1542-.1023-.0296.006.1008.1505.2964.3311m42.8034.271c.0177.1144.0592.2167.0889.2288.0296.012.0533.0662.0592.1204 0 .0542.0178.0722.0297.0361.0178-.0361-.0297-.1866-.0949-.3311-.1185-.2589-.1244-.2589-.0829-.0542m-51.54659.0602c0 .0301.0298.0602.05959.0602.03576 0 .05959-.0301.05959-.0602 0-.0361-.02383-.0602-.05959-.0602-.02979 0-.05959.0241-.05959.0602m12.54899.1024c-.0238.018-.0417.0662-.0417.1023s.0298.0301.0715-.012c.0358-.0362.0537-.0843.0418-.1024-.0179-.018-.0537-.012-.0716.0121m-12.60838.1023c0 .0542-.0415.1686-.09484.2469-.05335.0783-.08299.1806-.06521.2228.02371.0481.03557.0361.03557-.0301.00593-.0542.02964-.1024.05927-.1024.06521 0 .15412-.3553.10077-.4034-.01778-.0241-.03556.006-.03556.0662m9.36578-.0481c0 .0542.6106.6262.741.6924.0652.0361-.0652-.1144-.2905-.3312-.4031-.3913-.4505-.4335-.4505-.3612m42.4419.3251c0 .0301.0298.0602.0596.0602.0357 0 .0596-.0301.0596-.0602 0-.0361-.0239-.0602-.0596-.0602-.0298 0-.0596.0241-.0596.0602m.1484.2709c.0417.1987.0715.2469.1192.1987.0179-.018-.0119-.1084-.0656-.2047l-.0953-.1746zm-52.2524.0844c0 .0361.02979.0783.05959.0963.03575.0181.05959-.006.05959-.0542 0-.0542-.02384-.0963-.05959-.0963-.0298 0-.05959.0241-.05959.0542m-.05328.2227c0 .0662.01788.0843.03576.0361.01788-.0421.01192-.0963-.00596-.1144-.01788-.0241-.03576.0121-.0298.0783m10.54518-.0715c0 .0119.0418.0417.0954.0596.0477.0179.0715.0119.0536-.0239-.0357-.0596-.149-.0834-.149-.0357m41.944.216c.0178.1144.0593.2168.089.2288.0296.0121.0533.0663.0592.1205 0 .0541.0178.0722.0297.0361.0178-.0361-.0297-.1867-.0949-.3312-.1185-.2589-.1245-.2589-.083-.0542m-41.2682.4095c.2786.2769.4802.4335.492.3853.0178-.0421.0593-.1084.0949-.1505.1304-.1445.3497-.4757.326-.4937-.0534-.0602-.4031.3853-.4031.5118 0 .1204-.0948.0542-.4861-.3312-.2133-.2168-.4149-.3914-.4445-.3914-.0237 0 .1659.2108.4208.4697m-11.34544-.3493c0 .0301.0298.0602.05959.0602.03576 0 .05959-.0301.05959-.0602 0-.0361-.02383-.0602-.05959-.0602-.02979 0-.05959.0241-.05959.0602m-.08269.283c-.01787.0602-.05363.1445-.0715.1806-.01788.0422-.00596.0783.02383.0783.0298 0 .07747-.0722.09535-.1565.04767-.1807.01191-.265-.04768-.1024m52.89783.1987c0 .0301.0298.0602.0596.0602.0358 0 .0596-.0301.0596-.0602 0-.0361-.0238-.0602-.0596-.0602-.0298 0-.0596.0241-.0596.0602m-53.07556.2228c-.01788.0602-.05363.1445-.07151.1807-.01788.0421-.00596.0782.02384.0782.02979 0 .07747-.0722.09534-.1565.04767-.1807.01192-.265-.04767-.1024m53.20006-.006c0 .0662.0179.0843.0358.0361.0178-.0421.0119-.0963-.006-.1144-.0179-.0241-.0357.0121-.0298.0783m.0533.2047c0 .0301.0298.0602.0596.0602.0357 0 .0596-.0301.0596-.0602 0-.0361-.0239-.0602-.0596-.0602-.0298 0-.0596.0241-.0596.0602m-53.40217.2167c0 .0663.01788.0843.03576.0362.01787-.0422.01191-.0964-.00596-.1144-.01788-.0241-.03576.012-.0298.0782m53.55057.1145c.0417.1987.0715.2468.1192.1987.0178-.0181-.012-.1084-.0656-.2047l-.0953-.1747zm-53.63929.0842c-.02383.0422-.02979.0904-.01192.1084.05364.0542.11323-.0241.08343-.1084-.02383-.0662-.03575-.0662-.07151 0m-.11818.2891c-.01788.0602-.05363.1445-.07151.1806-.01788.0421-.00596.0783.02383.0783.0298 0 .07747-.0723.09535-.1566.04767-.1806.01192-.2649-.04767-.1023m53.93547.0481c.0417.1987.0715.2469.1191.1987.0179-.018-.0119-.1084-.0655-.2047l-.0953-.1746zm-54.08404.3673c0 .0663.01788.0843.03576.0362.01788-.0422.01192-.0964-.00596-.1144-.01788-.0241-.03576.012-.0298.0782m54.23784.0602c0 .0663.0178.0843.0357.0362.0179-.0422.0119-.0964-.0059-.1144-.0179-.0241-.0358.012-.0298.0782m-54.3268.1385c-.02384.0422-.0298.0903-.01192.1084.05363.0542.11322-.0241.08343-.1084-.02384-.0662-.03576-.0662-.07151 0m54.38.0662c0 .0301.0298.0603.0596.0603.0358 0 .0596-.0302.0596-.0603 0-.0361-.0238-.0602-.0596-.0602-.0298 0-.0596.0241-.0596.0602m-54.49819.2229c-.01787.0602-.05363.1445-.0715.1806-.01788.0421-.00596.0783.02383.0783.0298 0 .07747-.0723.09535-.1566.04767-.1806.01191-.2649-.04768-.1023m54.62269-.0061c0 .0663.0179.0843.0357.0361.0179-.0421.012-.0963-.0059-.1144-.0179-.024-.0358.0121-.0298.0783m.0535.2408c0 .0482.0298.0723.0596.0542.0358-.018.0596-.0602.0596-.0963 0-.0301-.0238-.0542-.0596-.0542-.0298 0-.0596.0422-.0596.0963m-54.85392.2469c-.01788.0603-.05363.1445-.07151.1807-.01788.0421-.00596.0783.02384.0783.02979 0 .07746-.0723.09534-.1566.04767-.1806.01192-.2649-.04767-.1024m54.97842-.006c0 .0662.0178.0843.0357.0361.0179-.0421.0119-.0963-.0059-.1144-.0179-.024-.0358.0121-.0298.0783m.0532.2168c0 .0602.0239.1084.0537.1084s.0715.0602.0834.1324c.0238.1265.0238.1265.0358.0121 0-.0663-.0358-.1747-.0835-.2409-.0774-.1023-.0834-.1023-.0894-.012m-55.18018.2047c0 .0662.01787.0843.03575.0361.01788-.0421.01192-.0963-.00596-.1144-.01788-.0241-.03575.0121-.02979.0783m-.12471.1987c0 .0361.0298.0783.05959.0963.03576.0181.05959-.006.05959-.0542 0-.0541-.02383-.0963-.05959-.0963-.02979 0-.05959.0241-.05959.0542m55.48289.0903c0 .0542.0298.0963.0596.0963.0358 0 .0596-.0241.0596-.0542 0-.0361-.0238-.0782-.0596-.0963-.0298-.0181-.0596.006-.0596.0542m-55.53616.1927c0 .0662.01788.0843.03575.0361.01788-.0421.01192-.0963-.00596-.1144-.01787-.0241-.03575.012-.02979.0783m55.68456.1144c.0417.1987.0715.2469.1192.1987.0179-.0181-.0119-.1084-.0655-.2047l-.0954-.1746zm-55.77328.0843c-.02384.0421-.0298.0903-.01192.1083.05363.0542.11322-.024.08343-.1083-.02384-.0663-.03576-.0663-.07151 0m-.08902.283c0 .0662.01788.0843.03576.0361.01787-.0422.01192-.0963-.00596-.1144-.01788-.0241-.03576.012-.0298.0783m56.0161.0602c0 .0662.0179.0843.0358.0361.0178-.0421.0119-.0963-.006-.1144-.0179-.0241-.0357.012-.0298.0783m-56.10506.1384c-.02384.0422-.0298.0904-.01192.1084.05363.0542.11322-.0241.08343-.1084-.02384-.0662-.03576-.0662-.07151 0m56.15836.0783c0 .0603.0238.1084.0536.1084s.0715.0602.0834.1325c.0239.1264.0239.1264.0358.012 0-.0662-.0358-.1746-.0834-.2408-.0775-.1024-.0834-.1024-.0894-.0121m-56.24737.2047c0 .0663.01787.0843.03575.0362.01788-.0422.01192-.0964-.00596-.1144-.01788-.0241-.03575.012-.02979.0782m-.11849.3252c-.0415.1144-.10077.2589-.13041.3131-.06521.1324-.06521.1686 0 .1686.02964 0 .07706-.0903.09484-.1987.02371-.1024.07113-.2108.10077-.2288.03557-.0241.04742-.0903.03557-.1506-.01186-.0843-.0415-.0602-.10077.0964m56.54386-.0361c0 .0541.0298.0963.0596.0963.0357 0 .0596-.0241.0596-.0542 0-.0361-.0239-.0783-.0596-.0963-.0298-.0181-.0596.006-.0596.0542m.1244.2529c0 .0662.0179.0843.0358.0361.0179-.0422.0119-.0964-.006-.1144-.0179-.0241-.0357.012-.0298.0783m.0533.2287c0 .0482.0237.1024.0534.1205.0296.018.0711.1324.0889.2468.0237.1144.0652.2108.0948.2108.0771 0 .0771-.1024.0059-.1445-.0296-.0241-.0711-.1445-.0948-.277-.0356-.2288-.1482-.3432-.1482-.1566m-56.95854.2529c0 .0663.01787.0843.03575.0362.01788-.0422.01192-.0964-.00596-.1144-.01788-.0241-.03575.012-.02979.0782m-.11833.2529c-.04172.0783-.05959.1867-.04767.2409.02383.0782.02979.0662.03575-.0301 0-.0723.03575-.1385.07747-.1506.03575-.012.05363-.0662.03575-.1084-.01788-.0662-.04767-.0541-.1013.0482m57.37927.289c0 .0662.0179.0843.0358.0361.0179-.0421.0119-.0963-.006-.1144-.0178-.024-.0357.0121-.0298.0783m-57.52764.1385c-.02384.0422-.0298.0903-.01192.1084.05363.0542.11322-.0241.08343-.1084-.02384-.0662-.03576-.0662-.07151 0m57.58094.0903c0 .0542.0298.0964.0596.0964.0358 0 .0596-.0241.0596-.0542 0-.0361-.0238-.0783-.0596-.0964-.0298-.018-.0596.0061-.0596.0542m-57.66405.2168c0 .0843.01192.1144.0298.0722.01192-.0361.01192-.1083 0-.1505-.01788-.0361-.0298-.006-.0298.0783m57.78855.0963c0 .0663.0179.0843.0357.0362.0179-.0422.0119-.0964-.0059-.1144-.0179-.0241-.0358.012-.0298.0782m-57.88342.1385c-.02384.0422-.0298.0903-.01192.1084.05363.0542.11322-.0241.08343-.1084-.02384-.0662-.03576-.0662-.07151 0m57.93672.0964c0 .0481.0297.0903.0595.0903.0358 0 .0596.0602.0596.1324 0 .0723.0179.1144.0358.0903.0536-.0481-.0358-.4034-.1013-.4034-.0298 0-.0536.0422-.0536.0904m-58.02574.1866c0 .0663.01788.0843.03576.0362.01788-.0422.01192-.0964-.00596-.1144-.01788-.0241-.03575.012-.0298.0782m-.08871.2589c-.02384.0421-.0298.0903-.01192.1084.05363.0542.11322-.0241.08342-.1084-.02383-.0662-.03575-.0662-.0715 0m58.29235.0301c0 .0542.0298.0964.0596.0964.0358 0 .0596-.0241.0596-.0542 0-.0362-.0238-.0783-.0596-.0964-.0298-.018-.0596.0061-.0596.0542m-58.38137.2529c0 .0663.01788.0843.03575.0362.01788-.0422.01192-.0964-.00595-.1144-.01788-.0241-.03576.012-.0298.0782m58.51177.0241c0 .0843.0119.1144.0298.0722.0119-.0361.0119-.1083 0-.1505-.0179-.0361-.0298-.006-.0298.0783m-58.60049.2348c-.02384.0422-.02979.0903-.01192.1084.05363.0542.11322-.0241.08343-.1084-.02384-.0662-.03575-.0662-.07151 0m58.64789.0301c0 .0542.0298.0964.0596.0964.0357 0 .0595-.0241.0595-.0542 0-.0362-.0238-.0783-.0595-.0964-.0298-.018-.0596.0061-.0596.0542m-58.7369.2529c0 .0662.01787.0843.03575.0361.01788-.0421.01192-.0963-.00596-.1144-.01788-.0241-.03575.0121-.02979.0783m58.8672.0241c0 .0843.012.1144.0298.0723.0119-.0362.0119-.1084 0-.1506-.0178-.0361-.0298-.006-.0298.0783m-58.95006.2047c-.02384.0602-.0298.1264-.01192.1445.05363.0542.1013-.0361.07747-.1505-.01788-.1024-.02384-.1024-.06555.006m58.99746.0602c0 .0542.0298.0964.0596.0964.0357 0 .0596-.0241.0596-.0542 0-.0362-.0239-.0783-.0596-.0964-.0298-.018-.0596.0061-.0596.0542m-59.09258.2529c0 .0662.01787.0843.03575.0361.01788-.0421.01192-.0963-.00596-.1144-.01787-.0241-.03575.0121-.02979.0783m59.22318.0241c0 .0843.0119.1144.0298.0722.0119-.0361.0119-.1083 0-.1505-.0179-.0361-.0298-.006-.0298.0783m-59.34764.2408c0 .0663.02979.1205.05959.1205.03575 0 .05959-.0542.05959-.1205 0-.0662-.02384-.1204-.05959-.1204-.0298 0-.05959.0542-.05959.1204m59.39504.0241c0 .0542.0298.0964.0596.0964.0357 0 .0596-.0241.0596-.0542 0-.0362-.0239-.0783-.0596-.0964-.0298-.018-.0596.0061-.0596.0542m-59.44832.2529c0 .0662.01788.0843.03576.0361.01787-.0421.01192-.0963-.00596-.1144-.01788-.0241-.03576.0121-.0298.0783m59.57862.0241c0 .0843.012.1144.0298.0723.012-.0362.012-.1084 0-.1506-.0178-.0361-.0298-.006-.0298.0783m-59.66734.2348c-.02383.0421-.02979.0903-.01191.1084.05363.0542.11322-.0241.08342-.1084-.02383-.0662-.03575-.0662-.07151 0m59.71474.0662c0 .1144.0179.1265.0715.0723.0537-.0542.0537-.0903 0-.1445-.0536-.0542-.0715-.0422-.0715.0722m-59.804.2168c0 .0663.01788.0843.03576.0362.01788-.0422.01192-.0964-.00596-.1144-.01788-.0241-.03575.012-.0298.0782m59.9344.0241c0 .0843.0119.1144.0298.0722.0119-.0361.0119-.1083 0-.1505-.0179-.0361-.0298-.006-.0298.0783m-60.02311.2348c-.02384.0422-.0298.0903-.01192.1084.05363.0542.11322-.0241.08342-.1084-.02383-.0662-.03575-.0662-.0715 0m60.07071.0602c0 .0723.0298.1265.0596.1265.0357 0 .0596-.0362.0596-.0843 0-.0482-.0239-.1084-.0596-.1265-.0298-.018-.0596.0181-.0596.0843m-60.15382.2469c0 .0843.01192.1144.0298.0722.01191-.0361.01191-.1083 0-.1505-.01788-.0361-.0298-.006-.0298.0783m60.27832.0963c0 .0663.0178.0843.0357.0361.0179-.0421.0119-.0963-.006-.1144-.0178-.024-.0357.0121-.0297.0783m-60.38485.1505c-.01788.0362-.00596.0964.02979.1325.04768.0482.06555.0301.06555-.0662 0-.1445-.02979-.1686-.09534-.0663m60.43805.0783c0 .0542.0298.0964.0596.0964.0358 0 .0596-.0241.0596-.0542 0-.0361-.0238-.0783-.0596-.0964-.0298-.018-.0596.0061-.0596.0542m-60.50925.2469c0 .0963.01192.1324.02979.0722.01192-.0542.01192-.1385 0-.1806-.01787-.0361-.02979.006-.02979.1084m60.63965.0602c0 .2168.0775.4275.1311.3432.0238-.0421.0179-.1083-.0119-.1505-.0298-.0421-.0715-.1264-.0894-.1927l-.0298-.1204zm-60.73453.2047c-.02383.0422-.02979.0904-.01192.1084.05364.0542.11323-.0241.08343-.1084-.02384-.0662-.03575-.0662-.07151 0m-.09428.3553c0 .0662-.02384.1445-.05959.1625-.07747.0482-.07747.1506-.00596.1506.06555 0 .15493-.3553.1013-.4034-.01787-.0241-.03575.018-.03575.0903m61.00651.012c0 .0843.0119.1144.0298.0723.0119-.0362.0119-.1084 0-.1506-.0179-.0361-.0298-.006-.0298.0783m.0476.3252c0 .0541.0298.0963.0596.0963.0358 0 .0596-.0241.0596-.0542 0-.0361-.0238-.0783-.0596-.0963-.0298-.0181-.0596.006-.0596.0542m-61.22067.2167c0 .0843.01192.1144.0298.0723.01192-.0362.01192-.1084 0-.1506-.01788-.0361-.0298-.006-.0298.0783m61.35107.0602c0 .0843.0119.1144.0298.0723.0119-.0362.0119-.1084 0-.1506-.0179-.0361-.0298-.006-.0298.0783m-61.4457.2348c-.02383.0422-.02979.0903-.01191.1084.05363.0542.11322-.0241.08342-.1084-.02383-.0662-.03575-.0662-.07151 0m61.4931.0602c0 .0723.0298.1265.0596.1265.0357 0 .0596-.0361.0596-.0843s-.0239-.1084-.0596-.1265c-.0298-.018-.0596.0181-.0596.0843m-61.60538.2891c-.01788.0903-.05363.2167-.07151.2709-.02383.0602-.01788.1084.01788.1084.02979 0 .07151-.1144.09534-.2469.04768-.2829.01192-.3913-.04171-.1324m61.72978.0542c0 .0662.0179.0843.0358.0361.0179-.0422.0119-.0964-.006-.1144-.0179-.0241-.0357.012-.0298.0783m.0533.2288c0 .0542.0298.0963.0596.0963.0358 0 .0596-.0241.0596-.0542 0-.0361-.0238-.0783-.0596-.0963-.0298-.0181-.0596.006-.0596.0542m-61.94307.3311c0 .0662-.02384.1385-.05959.1566-.02979.018-.05959.0963-.05959.1686 0 .1926.1013.0481.14898-.2168.02383-.1204.02383-.2228.00596-.2228-.01788 0-.03576.0542-.03576.1144m62.07367.006c0 .0843.0119.1144.0298.0723.0119-.0361.0119-.1084 0-.1505-.0179-.0362-.0298-.0061-.0298.0782m.0474.3252c0 .0542.0298.0963.0596.0963.0357 0 .0596-.0241.0596-.0542 0-.0361-.0239-.0782-.0596-.0963-.0298-.0181-.0596.006-.0596.0542m-62.28761.277c0 .0843.01192.1144.02979.0722.01192-.0361.01192-.1084 0-.1505-.01787-.0361-.02979-.006-.02979.0783m62.41801.0301c0 .0963.0119.1324.0298.0722.0119-.0542.0119-.1385 0-.1806-.0179-.0362-.0298.006-.0298.1084m-62.51871.2288c-.02383.0602-.02979.1264-.00595.1445.05959.0602.10726-.0241.07746-.1445-.02383-.1024-.02383-.1024-.07151 0m62.56601.0662c0 .0542.0298.0963.0596.0963.0358 0 .0596-.0241.0596-.0542 0-.0361-.0238-.0783-.0596-.0963-.0298-.0181-.0596.006-.0596.0542m-62.65444.3251c0 .0663-.02383.1446-.05959.1626-.07151.0482-.07747.271-.00596.271.05959 0 .14898-.4817.09535-.5299-.01788-.0181-.0298.0241-.0298.0963m62.78484.0121c0 .0843.0119.1144.0298.0722.0119-.0361.0119-.1083 0-.1505-.0179-.0361-.0298-.006-.0298.0783m.0476.3552c0 .0723.0237.1264.0533.1264.0297 0 .0712.1506.0949.3312.0178.1806.0652.3312.0948.3312.0712 0 .0712-.1506 0-.289-.0355-.0542-.077-.2048-.0948-.3252-.0356-.2468-.1482-.3733-.1482-.1746m-62.99903.2469c0 .0843.01192.1144.0298.0722.01192-.0361.01192-.1083 0-.1505-.01788-.0361-.0298-.006-.0298.0783m-.10653.3071c-.01788.0361-.00596.0963.0298.1324.04767.0482.06555.0301.06555-.0662 0-.1445-.0298-.1686-.09535-.0662m-.0712.3552c0 .0843.01192.1144.0298.0723.01191-.0362.01191-.1084 0-.1506-.01788-.0361-.0298-.006-.0298.0783m63.48486.0903c0 .0964.0119.1325.0298.0723.0119-.0542.0119-.1385 0-.1807-.0179-.0361-.0298.0061-.0298.1084m-63.58555.2288c-.02384.0602-.0298.1265-.00596.1445.05959.0603.10726-.024.07747-.1445-.02384-.1023-.02384-.1023-.07151 0m63.63295.0663c0 .0542.0298.0963.0596.0963.0357 0 .0595-.0241.0595-.0542 0-.0361-.0238-.0783-.0595-.0963-.0298-.0181-.0596.006-.0596.0542m.1306.3371c0 .1144.0119.1626.0298.1024.0119-.0542.0119-.1505 0-.2107-.0179-.0542-.0298-.0061-.0298.1083m-63.84084 0c0 .0843.01192.1144.0298.0723.01191-.0361.01191-.1084 0-.1505-.01788-.0362-.0298-.006-.0298.0782m-.09463.2951c-.02384.0421-.02979.0903-.01192.1083.05363.0542.11322-.024.08343-.1083-.02384-.0663-.03576-.0663-.07151 0m63.98277.0602c0 .0722.0298.1264.0596.1264.0358 0 .0596-.0361.0596-.0843 0-.0481-.0238-.1084-.0596-.1264-.0298-.0181-.0596.018-.0596.0843m-64.09505.3492c-.01788.1264-.04768.277-.07151.3312-.02384.0602-.01788.1083.01788.1083.05959 0 .16685-.584.11322-.6382-.01192-.0181-.04172.0723-.05959.1987m64.22545-.012c0 .0963.0119.1324.0298.0722.0119-.0542.0119-.1385 0-.1806-.0179-.0361-.0298.006-.0298.1084m.0474.3853c0 .0723.0298.1265.0596.1265.0357 0 .0596-.0362.0596-.0843 0-.0482-.0239-.1084-.0596-.1265-.0298-.0181-.0596.0181-.0596.0843m-64.42165.3071c0 .1144.01192.1626.02979.1024.01192-.0542.01192-.1506 0-.2108-.01787-.0542-.02979-.006-.02979.1084m64.55205.0903c0 .0963.0119.1325.0297.0723.012-.0542.012-.1385 0-.1807-.0178-.0361-.0297.0061-.0297.1084m-64.64668.2649c-.02384.0422-.0298.0904-.01192.1084.05363.0542.11322-.0241.08343-.1084-.02384-.0662-.03576-.0662-.07151 0m64.69428.0602c0 .0723.0298.1265.0595.1265.0358 0 .0596-.0361.0596-.0843s-.0238-.1084-.0596-.1265c-.0297-.018-.0595.0181-.0595.0843m-64.77739.3071c0 .1144.01192.1626.0298.1024.01192-.0542.01192-.1505 0-.2107-.01788-.0542-.0298-.0061-.0298.1083m64.90179-.0542c-.0119.2108.0715.6503.1251.6202.0298-.018.0358-.0903.012-.1625-.0239-.0723-.0656-.2288-.0894-.3433-.0179-.1144-.0417-.1685-.0477-.1144m-65.00832.4215c-.01788.0361-.00596.0964.0298.1325.04767.0481.06555.0301.06555-.0663 0-.1445-.0298-.1685-.09535-.0662m-.12433.5841c-.03575.1565-.04767.307-.01787.3311.02383.0301.05959-.0903.08342-.2649.05363-.3974.02384-.4275-.06555-.0662m65.31635-.0783c0 .0963.0119.1325.0298.0722.0119-.0541.0119-.1384 0-.1806-.0179-.0361-.0298.006-.0298.1084m.0535.3432c-.006.0963.0238.1686.0536.1686.0715 0 .0715-.0482 0-.2108-.0477-.1083-.0536-.1023-.0536.0422m-65.4947.3793c0 .0964.01192.1325.0298.0723.01191-.0542.01191-.1385 0-.1807-.01788-.0361-.0298.0061-.0298.1084m65.6189.0301c0 .1144.0119.1626.0298.1024.0119-.0542.0119-.1505 0-.2107-.0179-.0542-.0298-.0061-.0298.1083m-65.70741.2228c-.06555.0602-.04767.2589.01788.2589.03575 0 .05959-.0662.05959-.1505 0-.1566-.01192-.1746-.07747-.1084m65.75501.1927c0 .0722.0298.1264.0596.1264.0357 0 .0596-.0361.0596-.0843 0-.0481-.0239-.1084-.0596-.1264-.0298-.0181-.0596.018-.0596.0843m.1363.3974c0 .1324.0119.1806.0239.1023.0119-.0722.0119-.1806 0-.2408-.0179-.0542-.0298.006-.0239.1385m-66.01569.0421c-.01788.1084-.05363.277-.07151.3793-.02383.1205-.01787.1626.02384.1205.02979-.0362.07747-.2048.1013-.3794.04767-.3432.00596-.4275-.05363-.1204m66.06309.4034c-.0059.1445.012.1927.0537.1506.0417-.0422.0417-.1144.0059-.2108-.0536-.1385-.0596-.1324-.0596.0602m-66.20567.3673c0 .1144.01192.1626.0298.1024.01192-.0542.01192-.1506 0-.2108-.01788-.0542-.0298-.006-.0298.1084m66.33007.0903c0 .0964.0119.1325.0298.0723.0119-.0542.0119-.1385 0-.1806-.0179-.0362-.0298.006-.0298.1083m-66.41293.271c-.06555.2288-.05959.3372.01788.2589.03575-.0361.05363-.1385.04171-.2348l-.01788-.1746zm11.29183.012c.3853.3613.5275.4757.5513.4516.0296-.0301-.5869-.584-.6521-.584-.0237 0 .0237.0602.1008.1324"/>
  <path fill="currentColor" d="M56.7503 41.4613c-.1304.1204-.2252.2409-.2015.2589.0178.0181.0652-.006.1008-.0542.0415-.0481.16-.1625.2667-.2589.1126-.0903.1719-.1625.1364-.1625-.0356 0-.1719.0963-.3024.2167m11.4465.0663c-.0059.1083.0238.1987.0536.1987.0716 0 .0716-.1024 0-.271-.0417-.1024-.0536-.0903-.0536.0723m-55.7967.1144c-.0298.0241-.0417.289-.0417.59l.0119.548.0477-.4817c.0596-.5178.0477-.7286-.0179-.6563m-10.76485.2649c0 .1144.01192.1625.0298.1023.01192-.0542.01192-.1505 0-.2107-.01788-.0542-.0298-.006-.0298.1084m54.63495 0c-.3082.2649-.4742.4395-.4445.4636.0118.0121.1659-.1084.3438-.277.3082-.301.3793-.4214.1007-.1866m12.057.0903c0 .1325.012.1806.0239.1024.0119-.0723.0119-.1807 0-.2409-.0179-.0542-.0298.006-.0239.1385m-10.7824-.0662c-.0179.0481-.006.307.0238.584l.0536.5058.012-.5901c.0059-.5539-.0179-.6864-.0894-.4997m-56.00418.3853c-.02383.1084-.02979.2168-.01191.2349.06554.0722.1013-.0301.08342-.2349l-.01788-.1986zm66.83388.1144c-.0059.1084.0239.1987.0537.1987.0715 0 .0715-.1023 0-.2709-.0417-.1024-.0537-.0903-.0537.0722m-53.9295.2108c.326.301.492.4455.575.4937.0474.0241-.0711-.1024-.2668-.289-.1956-.1867-.3793-.3372-.403-.3372s.0177.0602.0948.1325m-12.98748.289c0 .1144.01192.1625.02979.1023.01192-.0542.01192-.1505 0-.2107-.01787-.0542-.02979-.006-.02979.1084m67.04148.0602c0 .1144.0119.1625.0298.1023.0119-.0542.0119-.1505 0-.2107-.0179-.0542-.0298-.006-.0298.1084m-56.1821 1.5655c0 .9453.0119 1.3306.0179.855.0119-.4697.0119-1.2404 0-1.716-.006-.4697-.0179-.0843-.0179.861M1.36278 43.3279c-.02384.0903-.01192.1927.01787.2228.04768.0481.06555 0 .06555-.1566 0-.2649-.02979-.283-.08342-.0662m56.30052 1.2283c0 .7466.0119 1.0476.0179.6743.0119-.3673.0119-.9814 0-1.3547-.006-.3673-.0179-.0663-.0179.6804m10.8891-1.0899c-.006.2048.0119.2529.0655.1987.0477-.0481.0477-.1204.006-.2649l-.0656-.1987zm-67.26691.4577c0 .1324.01191.1806.02383.1023.01192-.0722.01192-.1806 0-.2408-.01788-.0542-.02979.006-.02383.1385m14.44571-.1258c0 .012.0417.0417.0953.0596.0477.0179.0716.0119.0537-.0238-.0358-.0596-.149-.0834-.149-.0358m52.9517.2161c0 .1505.0119.2107.0238.1324.0119-.0722.0119-.1926 0-.2709-.0119-.0723-.0238-.0121-.0238.1385m-52.5841.1023c.1067.0964.2252.2108.2667.2589.0356.0482.083.0723.1008.0542.0474-.0421-.4149-.4756-.5039-.4756-.0355 0 .0238.0722.1364.1625m-14.9019.259c-.07151.2288-.05959.3974.01787.3191.03576-.0361.05364-.1566.04172-.265-.01788-.1926-.01788-.1986-.05959-.0541m67.5334.1625c-.006.1445.0238.2589.0536.2589.0715 0 .0715-.2228 0-.3913-.0417-.0904-.0536-.0603-.0536.1324m-15.6549.1987c-.1422.1325-.2371.2409-.2074.2409.0355 0 .1778-.1084.326-.2409.1482-.1264.243-.2348.2075-.2348-.0297 0-.1779.1024-.3261.2348m-51.96773.3312c0 .1625.01191.2288.02383.1324.01192-.0903.01192-.2228 0-.301-.01192-.0723-.02383 0-.02383.1686m67.75293.0602c0 .1625.0119.2288.0238.1324.0119-.0903.0119-.2227 0-.301-.0119-.0723-.0238 0-.0238.1686m-51.3392.2529c.1067.0963.2252.2107.2667.2589.0356.0481.083.0722.1008.0542.0474-.0422-.4149-.4757-.5038-.4757-.0356 0 .0237.0723.1363.1626m-16.51431.2167c-.02979.1265-.035749.2469-.011913.265.071513.0722.101303-.0302.083423-.259l-.02383-.2348zm67.90091.1445c-.006.1446.0238.259.0536.259.0715 0 .0715-.2228 0-.3914-.0417-.0903-.0536-.0602-.0536.1324m-50.6397.3192c.1778.1686.3319.295.3438.283.0415-.0362-.3853-.4577-.5335-.5299-.0711-.0361.0178.0783.1897.2469m-17.338368.3311c0 .1987.011918.271.023836.1626s.011918-.271 0-.3613-.023836 0-.023836.1987m56.620868.2168c-.0238.3251-.0179.5118.0238.5539.0477.0482.0656-.0903.0656-.4877 0-.3071-.0119-.5539-.0238-.5539-.012 0-.0418.2227-.0656.4877m11.4878-.0964c0 .1626.0119.2288.0238.1325.0119-.0903.0119-.2228 0-.3011-.0119-.0722-.0238 0-.0238.1686m-18.0855.1205c-.2074.1806-.3497.3311-.32.3311.0296 0 .1185-.0542.1956-.1264.409-.3553.5927-.5359.5453-.5359-.0237 0-.2193.1505-.4209.3312m-38.6006.2288c0 .289.0239.4636.0656.4636.0536 0 .0179-.8309-.0417-.8971-.0119-.0121-.0239.1806-.0239.4335m-11.523303.1505c-.023836.1445-.029795.277-.011918.295.071509.0723.101304-.0361.083427-.289l-.017877-.2649zm68.256703.1445c0 .1987.0179.3492.0537.3492.0655 0 .0655-.2408 0-.5118-.0358-.1505-.0477-.1204-.0537.1626m-11.6064.6202c0 .2288.0119.3191.0238.1927.0119-.1205.0119-.3131 0-.4215-.0119-.1024-.0238-.006-.0238.2288m-56.727303.0903c0 .2167.011918.301.023836.1926.011918-.1023.011918-.2829 0-.3913-.011918-.1024-.023836-.0181-.023836.1987m11.736603.0301c0 .1987.0119.2709.0238.1626.0119-.1084.0119-.271 0-.3613s-.0238 0-.0238.1987m37.0417 0c-.2074.1806-.3497.3312-.3201.3312.0297 0 .1186-.0542.1957-.1265.409-.3552.5927-.5359.5453-.5359-.0237 0-.2134.1506-.4209.3312m19.6858.1505c0 .2168.0119.3011.0238.1927.012-.1023.012-.283 0-.3914-.0119-.1023-.0238-.018-.0238.1987m-11.8494.3974c-.0239.1325-.0119.2408.0298.283.0477.0482.0655-.006.0655-.2168 0-.3371-.0417-.3673-.0953-.0662m-44.8306.1686c-.006.1746.0119.2228.0596.1746.0476-.0481.0476-.1144.0059-.2408-.0596-.1686-.0596-.1686-.0655.0662m-11.884948.1144c-.023836.1445-.011918.3251.017877.4094.047672.1144.05959.0663.05959-.2649.005959-.2228-.005959-.4034-.017877-.4034s-.041713.1144-.05959.2589m68.612448.277c-.006.295.0119.3733.0596.3251.0536-.0542.0536-.1565.0119-.3914l-.0596-.3191zm-21.138.1625c-.3438.3252-.3497.3974-.0059.0843.3616-.3251.4564-.4214.409-.4214-.0237 0-.2075.1505-.4031.3371m9.176-.0963c0 .1505.0119.2107.0238.1325.0119-.0723.0119-.1927 0-.271-.0119-.0722-.0238-.012-.0238.1385m-44.6353.1204c0 .1506.0119.2108.0238.1325.012-.0723.012-.1927 0-.271-.0119-.0722-.0238-.012-.0238.1385m44.5345.3493c-.0238.1083-.0298.2167-.0119.2348.0656.0722.1013-.0301.0834-.2348l-.0178-.1987zm-56.620922.6442c0 .3974.005959.554.017877.3432.011918-.2047.011918-.5298 0-.7225-.011918-.1867-.017877-.0181-.017877.3793M12.7141 49.656c-.0059.1084.0239.1987.0537.1987.0715 0 .0715-.1023 0-.2709-.0417-.1024-.0537-.0903-.0537.0722m56.686.8009c0 .4154.006.584.0179.3733.0119-.2047.0119-.5419 0-.7527-.0119-.2047-.0179-.0361-.0179.3794m-56.5615-.3613c0 .1144.0119.1626.0298.1024.0119-.0542.0119-.1506 0-.2108-.0179-.0542-.0298-.006-.0298.1084m44.2793 0c0 .0843.0119.1144.0298.0723.0119-.0362.0119-.1084 0-.1506-.0179-.0361-.0298-.006-.0298.0783m-10.1183.0606c-.0179.0357.0059.0417.0536.0238.1073-.0417.1252-.0834.0417-.0834-.0357 0-.0774.0238-.0953.0596m-23.7581.3247c.4208.3854.5097.4576.5631.4576.0296 0-.1126-.1505-.3201-.3311-.2015-.1807-.3971-.3312-.4209-.3312-.0296 0 .0534.0903.1779.2047m23.3609.0362c-.1364.1324-.2371.2408-.2134.2408s.077-.0361.1185-.0783c.0415-.0361.166-.1445.2727-.2408.1126-.0903.1719-.1626.1423-.1626-.0356 0-.1779.1084-.3201.2409m10.4328-.1204c-.0418.1445-.0179.2288.0476.1685.0179-.024.0239-.1023.0119-.1806l-.0178-.1385zm-44.1492.1444c0 .0843.0298.1566.0596.1566.0357 0 .0596-.0542.0596-.1144 0-.0662-.0239-.1385-.0596-.1566-.0358-.024-.0596.0301-.0596.1144m44.0542.277c0 .1144.0119.1626.0298.1024.0119-.0542.0119-.1505 0-.2107-.0179-.0542-.0298-.0061-.0298.1083m-43.9238.0903c0 .0964.0119.1325.0298.0723.0119-.0542.0119-.1385 0-.1806-.0179-.0362-.0298.006-.0298.1083m43.8231.2289c-.0238.0602-.0298.1264-.006.1445.0596.0602.1073-.0241.0775-.1445-.0238-.1024-.0238-.1024-.0715 0m-43.7758.1023c0 .1144.0179.1264.0715.0722.0537-.0542.0537-.0903 0-.1445-.0536-.0542-.0715-.0421-.0715.0723m43.6869.289c0 .0602-.0237.1325-.0534.1626-.0296.0361-.0711.1686-.0889.301-.0178.1325-.0178.1867 0 .1205.0237-.0663.0593-.1506.083-.1807.0652-.0782.1423-.5118.0948-.5118-.0177 0-.0355.0482-.0355.1084m-43.5624.0482c0 .0662.0179.0843.0357.0361.0179-.0421.012-.0963-.0059-.1144-.0179-.0241-.0358.0121-.0298.0783m11.4759.1686c.4208.3853.5098.4576.5631.4576.0652 0-.6757-.6563-.741-.6623-.0296 0 .0534.0903.1779.2047m20.5274.012c-.1304.1204-.2252.2408-.2015.2589.0178.0181.0652-.006.1007-.0542.0415-.0481.1601-.1625.2668-.2589.1126-.0903.1719-.1626.1363-.1626-.0355 0-.1719.0964-.3023.2168m-31.9498.1084c0 .0542.0298.0963.0596.0963.0357 0 .0596-.0241.0596-.0542 0-.0361-.0239-.0782-.0596-.0963-.0298-.0181-.0596.006-.0596.0542m-12.738578.0723c0 .0662.017877.0843.035754.0361.017877-.0422.011918-.0963-.005959-.1144-.017877-.0241-.035754.012-.029795.0783m12.868978.2047c0 .0843.0119.1144.0298.0722.0119-.0361.0119-.1083 0-.1505-.0179-.0361-.0298-.006-.0298.0783m43.0522.3612c-.0237.1325-.0652.2529-.0948.277-.0711.0421-.0711.1445.0059.1445.0297 0 .0711-.0963.0949-.2107.0177-.1144.0592-.2288.0889-.2469.0711-.0421.0711-.2047 0-.2047-.0297 0-.0712.1084-.0949.2408m-43.0049-.0963c0 .0542.0298.0963.0596.0963.0358 0 .0596-.0241.0596-.0542 0-.0361-.0238-.0782-.0596-.0963-.0298-.0181-.0596.006-.0596.0542m.1484.3071c.0417.1987.0715.2468.1192.1987.0179-.0181-.0119-.1084-.0655-.2048l-.0954-.1746zm30.3493.1806c-.0652.0482-.1838.1385-.2667.2047-.083.0662-.1245.1385-.1008.1686.0296.0241.083.006.1185-.0421.0415-.0482.1601-.1626.2668-.2589.2074-.1686.1837-.2349-.0178-.0723m12.3057.1866c0 .0663.0179.0843.0358.0362.0179-.0422.0119-.0964-.006-.1144-.0178-.0241-.0357.012-.0298.0782m-42.5009.0603c0 .0662.0178.0843.0357.0361.0179-.0421.0119-.0963-.0059-.1144-.0179-.0241-.0358.0121-.0298.0783m55.6721.2047c0 .1806.012.2589.0239.1626.0119-.0904.0119-.2349 0-.3312-.0119-.0903-.0239-.012-.0239.1686m-68.819781.1505c0 .1626.011918.2288.023836.1325.011918-.0904.011918-.2228 0-.3011-.011918-.0722-.023836 0-.023836.1686M56.1045 53.335c-.0417.0782-.0596.1685-.0417.2107.0119.0421.0298.0301.0298-.0301.006-.0542.0358-.1084.0775-.1204.0357-.0121.0536-.0663.0357-.1084-.0178-.0662-.0476-.0542-.1013.0482m-42.3294.012c0 .0301.0298.0602.0596.0602.0358 0 .0596-.0301.0596-.0602 0-.0361-.0238-.0602-.0596-.0602-.0298 0-.0596.0241-.0596.0602m42.1456.3613c0 .0301.0297.0602.0595.0602.0358 0 .0596-.0301.0596-.0602 0-.0362-.0238-.0603-.0596-.0603-.0298 0-.0595.0241-.0595.0603m-.1719.4274c-.0711.1686-.1185.3192-.1008.3372.0178.0181.0475-.0361.0712-.1264.0178-.0843.0592-.1566.083-.1566.0474 0 .1422-.301.1067-.3372-.0119-.006-.083.1205-.1601.283m13.509-.1806c0 .0662.0298.1024.0596.0843.0358-.0181.0596-.0783.0596-.1264 0-.0482-.0238-.0843-.0596-.0843-.0298 0-.0596.0542-.0596.1264m-68.642077.0482c0 .0662.029795.1385.05959.1565.035754.0241.05959-.0301.05959-.1144s-.023836-.1565-.05959-.1565c-.029795 0-.05959.0542-.05959.1144m68.594677.3071c0 .0842.012.1144.0298.0722.012-.0361.012-.1084 0-.1505-.0178-.0361-.0298-.006-.0298.0783m-68.464306.0903c0 .0963.011918.1325.029795.0722.011918-.0541.011918-.1384 0-.1806-.017877-.0361-.029795.006-.029795.1084m68.334006.2769c0 .0663.0298.1024.0596.0843.0357-.018.0596-.0782.0596-.1264s-.0239-.0843-.0596-.0843c-.0298 0-.0596.0542-.0596.1264m-68.286643-.012c0 .0361.029795.0783.05959.0963.035755.0181.059591-.006.059591-.0541 0-.0542-.023836-.0964-.059591-.0964-.029795 0-.05959.0241-.05959.0542m54.540343.2228c-.0356.0903-.0533.1746-.0356.1927.0178.0241.0475-.0241.0712-.0964.0178-.0722.0533-.1324.083-.1324.0296 0 .0533-.0301.0533-.0602 0-.1144-.1008-.0602-.1719.0963m13.6987.0843c0 .0843.0119.1144.0298.0722.0119-.0361.0119-.1084 0-.1505-.0179-.0361-.0298-.006-.0298.0783m-68.114339.0361c0 .0662.017877.0843.035754.0361.017877-.0421.011918-.0963-.005959-.1144-.017877-.0241-.035754.0121-.029795.0783m.053275.2589c0 .0723.029794.1265.059594.1265.03575 0 .05959-.0362.05959-.0843 0-.0482-.02384-.1084-.05959-.1265-.0298-.018-.059594.0181-.059594.0843m67.930664-.018c0 .0481.0298.0722.0596.0541.0357-.018.0596-.0602.0596-.0963 0-.0301-.0239-.0542-.0596-.0542-.0298 0-.0596.0422-.0596.0964m-.0533.2468c0 .0723-.0297.1385-.0593.1505-.0297.0061-.0771.0964-.0949.1987-.0355.1686-.0296.1626.089-.0481.0652-.1325.1126-.277.1007-.3312-.0178-.0722-.0296-.0662-.0355.0301m-67.7529.0542c0 .0662.01787.0843.03575.0361.01788-.0421.01192-.0963-.00596-.1144-.01788-.0241-.03575.0121-.02979.0783m.05327.2047c0 .0301.0298.0602.05959.0602.03575 0 .05959-.0301.05959-.0602 0-.0361-.02384-.0602-.05959-.0602-.02979 0-.05959.0241-.05959.0602m.12446.2168c0 .0662.01788.0843.03575.0361.01788-.0421.01192-.0963-.00596-.1144-.01787-.0241-.03575.012-.02979.0783m13.92417-.0662c0 .018.0533.0903.1185.1625.1304.1445.1601.0783.0356-.0903-.0771-.0963-.1541-.1385-.1541-.0722m-13.79961.2408c0 .0662.01788.1746.04768.2408.06554.1506.06554-.006 0-.2107-.03576-.1204-.04768-.1264-.04768-.0301m67.12471.0421c-.0596.2349-.0417.265.0536.0843.1013-.1987.1073-.2167.0358-.2167-.0298 0-.0656.0602-.0894.1324m-53.0288.0964c0 .0783 1.1144 1.2765 1.1915 1.2765.0296 0-.1363-.1867-.3616-.4155-.2312-.2288-.4149-.4275-.4149-.4456 0-.018-.0949-.1384-.2075-.2649-.1126-.1264-.2075-.1927-.2075-.1505m52.8451.3131c-.0238.1024-.0298.2047-.0119.2168.0179.018.0477-.0542.0715-.1566.0238-.1023.0298-.2047.0119-.2167-.0179-.0181-.0477.0541-.0715.1565m-66.83432 0c0 .0301.0298.0602.05959.0602.03576 0 .05959-.0301.05959-.0602 0-.0361-.02383-.0602-.05959-.0602-.02979 0-.05959.0241-.05959.0602m.17774.3613c0 .0301.02979.0602.05959.0602.03575 0 .05959-.0301.05959-.0602 0-.0362-.02384-.0603-.05959-.0603-.0298 0-.05959.0241-.05959.0603m40.34968.006c.0417.0421.0894.0602.1072.0421.0179-.018-.0119-.0542-.0715-.0722-.0834-.0362-.0894-.0301-.0357.0301m11.814-.006c-.0537.0361-.0596.0602-.0179.0602.0358 0 .0894-.0301.1073-.0602.0476-.0723.0238-.0723-.0894 0m14.3031.0481c-.0178.0723-.0534.1325-.0771.1325-.0296 0-.0652.0783-.0889.1806-.0237.0964-.0652.1807-.0948.1807-.0297 0-.0534.024-.0534.0602 0 .0301.0237.0602.0474.0602.0652 0 .3853-.6623.3438-.7105-.0237-.0181-.0533.0241-.077.0963m-25.8385.2228c.0948.0843.2015.1505.2371.1505.077 0-.2668-.295-.3498-.301-.0296 0 .0178.0662.1127.1505m11.3574-.0903c-.0536.0361-.0596.0602-.0179.0602.0358 0 .0894-.0301.1073-.0602.0477-.0723.0238-.0723-.0894 0m-51.8077.1806c0 .0301.02963.0602.05927.0602.03557 0 .05928.0301.05928.0663 0 .0361.05927.1384.12448.2227l.12448.1626-.04149-.1505c-.02371-.0843-.06521-.1626-.08892-.1807-.01778-.018-.05335-.0782-.07706-.1384-.04149-.1084-.16004-.1446-.16004-.0422m51.63 0c-.0537.0361-.0596.0602-.0179.0602.0357 0 .0894-.0301.1072-.0602.0477-.0722.0239-.0722-.0893 0m-36.6094.4516c.0948.0843.2015.1505.2371.1505.077 0-.2668-.295-.3498-.301-.0296 0 .0178.0662.1127.1505m50.8591-.006c-.0356.0421-.0889.1385-.1067.2228-.0356.1144-.0178.1083.0889-.0542.1304-.1987.1423-.3011.0178-.1686m-50.4086.3673c.1127.0843.2253.1505.2608.1505.0297 0-.0296-.0662-.1422-.1505s-.2253-.1506-.2608-.1506c-.0297 0 .0296.0663.1422.1506m35.2991-.0903c-.0237.0361-.1838.1565-.3675.2769-.1779.1144-.3142.2288-.2964.2469.0237.0181.0771-.0121.1304-.0662.0534-.0542.1245-.0964.1541-.0964.0297 0 .0889-.0301.1304-.0602.0415-.0361.1541-.1325.249-.2107.1008-.0843.1482-.1506.1067-.1506-.0356 0-.0889.0301-.1067.0603m-8.9212.1986c.1482.0723.2253.1265.3794.265.0474.0421.16.0903.2489.1083l.1719.0422-.1956-.1265c-.1067-.0722-.2074-.1264-.2252-.1264s-.1008-.0542-.1838-.1204-.1956-.1204-.2489-.1144c-.0593 0-.0415.0241.0533.0722m23.6573.1205c-.0652.1144-.1245.2348-.1245.2769 0 .0362-.0237.0663-.0534.0663-.0592 0-.3023.3673-.3023.4515 0 .0482.0949-.0541.3142-.3432.0533-.0722.1008-.1685.1008-.2107 0-.0421.0237-.0783.0474-.0783.0593 0 .2074-.301.1719-.3432-.0178-.012-.083.0663-.1541.1807m-49.7033-.0241c-.0237.0301.0237.0783.0949.1024.077.024.1482.0602.166.0782.0592.0783.4623.3071.5394.3071.0474 0-.0237-.0602-.1541-.1264-.1305-.0723-.3201-.1927-.4209-.277-.1126-.0843-.2075-.1204-.2253-.0843m34.1077.295c0 .0301-.0711.0783-.16.1144-.1008.0361-.1245.0662-.0711.0723.0533.006.16-.0482.2371-.1144.077-.0603.1067-.1144.0711-.1205-.0415 0-.0771.0241-.0771.0482m-7.2317.0723c0 .0542.2311.1505.2667.1083.0118-.012-.0415-.0481-.1245-.0903-.077-.0361-.1422-.0421-.1422-.018m-25.9632.1806c0 .0542.2312.1505.2668.1084.0118-.0121-.0415-.0482-.1245-.0903-.0771-.0362-.1423-.0422-.1423-.0181m26.2891 0c-.0178.0241.0415.0662.1245.0843.2074.0542.2311.0241.0474-.0662-.0771-.0362-.1541-.0482-.1719-.0181m6.3722.0422c-.0829.0421-.1067.0782-.0592.0782.1007 0 .2786-.1023.2371-.1384-.0178-.0121-.0949.012-.1779.0602m-32.3056.1384c0 .0302.0298.0603.0656.0603.0298 0 .0417-.0301.0238-.0603-.0179-.0361-.0477-.0602-.0655-.0602-.012 0-.0239.0241-.0239.0602m26.3186.0061c0 .0481.3498.1445.3853.1023.0119-.012-.0711-.0482-.1837-.0843-.1127-.0361-.2016-.0481-.2016-.018m5.6017.0361-.1778.0843.1778-.0361c.1837-.0422.243-.0723.2015-.1144-.0118-.0121-.1007.018-.2015.0662m-31.6949.0603c.0418.0179.0954.0119.1133-.006.0238-.0178-.0119-.0357-.0775-.0298-.0655 0-.0834.0179-.0358.0358m26.5381.0782c-.0179.0301.0059.0602.0596.0602.0536 0 .0774-.0301.0595-.0602-.0178-.0362-.0476-.0603-.0595-.0603-.012 0-.0418.0241-.0596.0603m4.8012 0c-.0178.0301.006.0602.0596.0602.0537 0 .0775-.0301.0596-.0602-.0179-.0362-.0477-.0603-.0596-.0603s-.0417.0241-.0596.0603m-31.1022.0422c.0417.0179.0954.0119.1132-.0059.0239-.0179-.0119-.0358-.0774-.0298-.0656 0-.0835.0178-.0358.0357m47.3561-.0001c-.0238.0181-.0417.0662-.0417.1024 0 .0361.0298.0301.0715-.0121.0357-.0361.0536-.0843.0417-.1023-.0179-.0181-.0536-.0121-.0715.012m-47.119.0603c.0417.0179.0953.012.1132-.0059.0238-.0179-.0119-.0358-.0775-.0298-.0655 0-.0834.0179-.0357.0357m26.3187 0c.0357.0119.1072.0119.1489 0 .0358-.0178.006-.0298-.0774-.0298-.0835 0-.1133.012-.0715.0298m4.3273 0c.0417.0179.0953.012.1132-.0059.0238-.0179-.0119-.0358-.0775-.0298-.0655 0-.0834.0179-.0357.0357m-30.4267.0782c-.0179.0301.0179.0602.0894.0602s.1072-.0301.0894-.0602c-.0179-.0361-.0596-.0602-.0894-.0602s-.0715.0241-.0894.0602m26.3779 0c-.0179.0301.0179.0602.0894.0602s.1073-.0301.0894-.0602c-.0179-.0361-.0596-.0602-.0894-.0602s-.0715.0241-.0894.0602m3.7345 0c-.0179.0301.0059.0602.0596.0602.0536 0 .0774-.0301.0596-.0602-.0179-.0361-.0477-.0602-.0596-.0602s-.0417.0241-.0596.0602m-29.7686.1025c.0533.0119.1363.0119.1778 0 .0355-.0179-.0059-.0298-.1067-.0298-.0949 0-.1304.0119-.0711.0298m26.3779 0c.0533.0119.1363.0119.1778 0 .0356-.0179-.0059-.0298-.1067-.0298-.0948 0-.1304.0119-.0711.0298m3.0825 0c.0533.0119.1363.0119.1778 0 .0356-.0179-.0059-.0298-.1067-.0298-.0948 0-.1304.0119-.0711.0298m-29.1225.0781c0 .0302.1008.0603.2253.0542.1956-.006.2015-.012.0711-.0542-.2134-.0662-.2964-.0662-.2964 0m26.3779 0c0 .0302.089.0603.1957.0542.16 0 .1719-.012.0711-.0542-.166-.0722-.2668-.0722-.2668 0m2.2228.0001c-.0948.0421-.0711.0541.1067.0541.1364.0061.2134-.018.1897-.0541-.0415-.0723-.1363-.0723-.2964 0m-26.36.0422c.0357.0119.1072.0119.1489 0 .0358-.0179.006-.0298-.0774-.0298-.0835 0-.1133.0119-.0715.0298m-1.3992.0602c.2193.0119.5928.0119.8299 0 .2371-.006.0592-.0179-.3972-.0179s-.652.006-.4327.0179m26.3543 0c.2312.0119.6224.0119.8595 0 .2312-.006.0415-.0179-.4327-.0179s-.6639.0119-.4268.0179M4.23169 60.7289c0 .0361.09484.1625.20747.283.11262.1204.20746.2288.20746.2468 0 .0181.13634.1746.30231.3492.16598.1747.2786.271.24896.2168-.04149-.0903-.17782-.2529-.80023-.9754-.08891-.1024-.16597-.1566-.16597-.1204m61.28581.1926c-.2964.3372-.2964.4335 0 .1265.1007-.1024.1837-.2108.1837-.2409 0-.0843-.0296-.0662-.1837.1144M5.29858 61.9873c0 .1023 2.58445 2.7275 2.63187 2.6733.01186-.012-.57498-.6322-1.30408-1.3728-.72909-.7345-1.32779-1.3246-1.32779-1.3005m58.03152 1.3065c-.6342.6563-1.1322 1.1922-1.1025 1.1922.0296 0 .1422-.0903.243-.1987.1067-.1023.5513-.5479.984-.9874.984-.9815 1.0788-1.0899 1.0492-1.144-.0059-.0302-.5394.4877-1.1737 1.1379m-1.3039 1.3126c-.0536.0362-.0596.0603-.0179.0603.0358 0 .0894-.0301.1073-.0603.0477-.0722.0238-.0722-.0894 0m-53.95926.1867c.04172.0421.08939.0602.10727.0421.01787-.018-.01192-.0541-.07151-.0722-.08343-.0361-.08939-.0301-.03576.0301m52.77366.8971c-.1482.1265-.2371.2349-.2075.2409.0356 0 .1067-.0482.1601-.1084.0533-.0542.1659-.1626.2549-.2408.0889-.0723.1363-.1325.1067-.1325-.0238 0-.166.1084-.3142.2408m-.5098.4336c-.2727.2167-.4031.3492-.3438.3492s.6105-.4757.5512-.4817c-.0237 0-.1126.0602-.2074.1325m-50.56288.2047c.08891.0843.18376.1385.20154.1204.04154-.0421-.22525-.277-.30824-.277-.03556 0 .01186.0723.1067.1566m.46248.3673c.1067.0963.2311.2047.2726.2408.0415.0422.1067.0783.1364.0783.0355 0-.0237-.0723-.1364-.1626-.1067-.0963-.2311-.2047-.2726-.2408-.0415-.0422-.1067-.0783-.1364-.0783-.0355 0 .0237.0723.1364.1626m49.4483-.0121c-.0948.0843-.1481.1506-.1185.1506.0237 0 .1245-.0663.2252-.1506.0949-.0843.1482-.1505.1186-.1505s-.1304.0662-.2253.1505m-.4209.3673c-.1186.1084-.1304.1325-.0415.0904.1245-.0603.3082-.2469.243-.2469-.0177 0-.1126.0722-.2015.1565m-48.5652.0482c0 .012.0652.0662.1482.1204.166.1144.1956.0903.0534-.0481-.083-.0904-.2016-.1325-.2016-.0723m48.1326.283c-.1126.1024-.3082.2529-.4327.3372-.1186.0843-.2075.1686-.1956.1866.0355.0301.2371-.0963.4505-.289.0829-.0722.2134-.1866.2904-.2468.0771-.0663.1304-.1265.1186-.1445-.0178-.0121-.1186.0602-.2312.1565m-47.6285.1264c.0652.0422.2015.1445.2964.2409.1007.0903.2015.1686.2252.1686s.1304.0782.2371.1806c.1067.0963.2134.1806.249.1806.0593 0-.3912-.4154-.4505-.4214-.0237 0-.1423-.0964-.2668-.2108-.1304-.1144-.2726-.2107-.32-.2047-.0593 0-.0534.0181.0296.0662m46.68.6202c-.1127.0843-.1719.1505-.1423.1505.0356 0 .1482-.0662.2608-.1505s.1719-.1505.1423-.1505c-.0356 0-.1482.0662-.2608.1505m-45.5776.2348c.1363.1265.6046.4576.6224.4396.0119-.0121-.0415-.0783-.1304-.1385-.083-.0602-.2075-.1626-.2727-.2228-.1007-.0843-.3023-.1566-.2193-.0783m45.2219.0361c-.0771.0482-.0771.0603.0118.0603.0534 0 .1186-.0301.1364-.0603.0474-.0782-.0297-.0782-.1482 0m-.7112.542c-.077.0481-.077.0602.0119.0602.0533 0 .1185-.0301.1363-.0602.0474-.0783-.0296-.0783-.1482 0m-.4744.3612c-.1719.1325-.2904.2409-.2608.2409.0356 0 .2075-.1084.3794-.2409.1719-.1324.2904-.2408.2608-.2408-.0356 0-.2075.1084-.3794.2408m-42.6196.1452c0 .012.0417.0417.0954.0596.0476.0179.0715.0119.0536-.0238-.0358-.0596-.149-.0834-.149-.0358m42.0508.2643c-.0712.0541-.1838.1445-.2609.1926-.1126.0783-.2548.1927-.4445.3493-.0356.0301-.1127.0843-.1779.1204s-.0889.0722-.0533.0722.2075-.1083.3794-.2408.3319-.2409.3556-.2409c.0178 0 .0889-.0481.1541-.1083.0593-.0602.166-.1445.2312-.1807.083-.0481.0889-.0662.0297-.0662-.0475 0-.1482.0421-.2134.1024m-40.8059.6389c0 .0119.0417.0417.0953.0596.0477.0179.0715.0119.0537-.0238-.0358-.0596-.149-.0835-.149-.0358m39.6262.216c-.0474.0783.0297.0783.1482 0 .0771-.0481.0771-.0602-.0118-.0602-.0534 0-.1186.0241-.1364.0602m-.2668.1807c-.0771.0482-.0771.0602.0118.0602.0534 0 .1186-.0301.1364-.0602.0474-.0783-.0297-.0783-.1482 0m-38.4645.2288c.4505.3492 1.7961 1.2163 1.8553 1.1922.0415-.0181.0356-.0301-.0118-.0301-.0711-.0061-.1363-.0482-.3379-.2349-.0415-.0361-.1067-.0722-.1363-.0722-.0474 0-.1364-.0662-.409-.3011-.0415-.0301-.0949-.0602-.1245-.0602-.0474 0-.1363-.0662-.409-.301-.0415-.0301-.0949-.0602-.1245-.0602s-.1126-.0542-.1897-.1205c-.077-.0662-.16-.1204-.1956-.1204-.0296 0 .0059.0482.083.1084m38.0554.0482c-.1185.0843-.1659.1445-.1067.1445.0474 0 .1304-.0362.1719-.0783.0415-.0422.1304-.1084.1956-.1505.083-.0482.089-.0663.0297-.0663-.0474 0-.1778.0723-.2905.1506m-.3615.2649c-.0475.0301-.0593.0602-.0297.0602.0356 0 .1008-.0301.1482-.0602s.0652-.0602.0296-.0602c-.0296 0-.1007.0301-.1481.0602m-.2964.1806c-.0771.0542-.0771.0602 0 .0602.0474 0 .1304-.0301.1778-.0602.0771-.0542.0771-.0602 0-.0602-.0474 0-.1304.0301-.1778.0602m-.2371.1807c-.0474.0301-.0593.0602-.0296.0602.0355 0 .1007-.0301.1482-.0602.0474-.0302.0652-.0603.0296-.0603-.0296 0-.1008.0301-.1482.0603m-.2963.1806c-.0771.0542-.0771.0602 0 .0602.0474 0 .1304-.0301.1778-.0602.077-.0542.077-.0602 0-.0602-.0474 0-.1304.0301-.1778.0602m-.3854.2709c-.1363.0843-.1956.1506-.1363.1506.0533 0 .1363-.0362.1778-.0783.0415-.0422.1304-.1084.1956-.1505.0652-.0362.0949-.0663.0593-.0663-.0296 0-.166.0663-.2964.1445m-.4148.271c-.0475.0782.0296.0782.1481 0 .0771-.0482.0771-.0602-.0118-.0602-.0534 0-.1186.024-.1363.0602m-.415.2589c-.243.1325-.3378.2288-.2963.277.0177.012.077-.0181.1363-.0723.0593-.0602.1423-.1023.1778-.1023.0415 0 .0712-.0241.0712-.0482 0-.0301.0592-.0843.1363-.1204.0711-.0362.1067-.0663.0711-.0663-.0296 0-.1659.0602-.2964.1325m-.5038.3372c0 .0301-.0711.0843-.1601.1144-.0948.0361-.1244.0662-.0711.0662.0534.006.1601-.0482.2371-.1144.0771-.0602.1067-.1144.0711-.1204-.0414 0-.077.0241-.077.0542m-.5038.307c-.0475.0783.0296.0783.1481 0 .0771-.0481.0771-.0602-.0118-.0602-.0534 0-.1186.0241-.1363.0602m-.2668.1626c-.0474.0241-.1245.0723-.166.1204-.0415.0422-.1185.0783-.1659.0783-.0475 0-.083.0241-.083.0542s-.0534.0783-.1245.0963c-.0652.0241-.1067.0542-.0889.0723.0296.0301.4327-.1867.7172-.3854.1186-.0782.0712-.0963-.0889-.0361m-1.0196.6382c-.2371.1385-.3201.277-.0889.1506.0711-.0422.1422-.0964.16-.1144.0178-.0181.083-.0663.1482-.1024s.0948-.0662.0593-.0662c-.0297 0-.1601.0602-.2786.1324m-.492.283c-.0474.0783.0297.0783.1482 0 .0771-.0481.0771-.0602-.0118-.0602-.0534 0-.1186.0241-.1364.0602m-.2964.1807c-.0771.0361-.0889.0542-.0296.0542.0474 0 .1304-.0241.1778-.0542.1067-.0723.0119-.0723-.1482 0m-.326.1806c-.077.0542-.077.0602 0 .0602.0474 0 .1304-.0301.1779-.0602.077-.0542.077-.0602 0-.0602-.0475 0-.1305.0301-.1779.0602m-.4446.271c-.3082.1926-.2193.1926.1363 0 .1542-.0843.2371-.1506.1897-.1506s-.1956.0723-.326.1506m-.4743.2709c-.077.0361-.0889.0542-.0296.0542.0474 0 .1304-.0241.1778-.0542.1067-.0723.0119-.0723-.1482 0m-.5037.283c-.2193.1265-.2371.1445-.0889.1084.0948-.0181.1896-.0662.2074-.0903.0178-.0301.1008-.0783.1779-.1144.0829-.0301.1067-.0602.0592-.0602-.0474 0-.2074.0722-.3556.1565m-.6223.3492c-.3083.1927-.2194.1927.1363 0 .1541-.0843.2371-.1505.1897-.1505s-.1956.0722-.326.1505m-.5039.271c-.1067.0722-.0119.0722.1482 0 .077-.0362.0889-.0542.0296-.0542-.0474 0-.1304.0241-.1778.0542m-.4149.2348c0 .0241-.0889.0783-.1897.1144-.1956.0662-.1956.0723-.0178.0361.1838-.0301.415-.2047.2786-.2047-.0415 0-.0711.0241-.0711.0542m-.6225.3071c-.077.0301-.0829.0542-.0296.0542.0474 0 .1423-.0241.2075-.0542.077-.0301.083-.0542.0296-.0542-.0474 0-.1422.0241-.2075.0542m-.3261.1806c-.1423.0903-.0415.1084.1185.0181.083-.0422.1067-.0783.0593-.0783s-.1304.0241-.1778.0602m-.3555.1806c-.1422.0904-.0415.1084.1186.0181.083-.0421.1067-.0783.0592-.0783-.0474 0-.1304.0241-.1778.0602m-.3795.1747c-.0652.024-.0889.0602-.0592.0782.0296.0121.1185-.006.2015-.0481.1541-.0843.0474-.1084-.1423-.0301m-.3615.1866c-.077.0301-.0829.0542-.0296.0542.0474 0 .1423-.0241.2075-.0542.077-.0301.083-.0542.0296-.0542-.0474 0-.1423.0241-.2075.0542m-.3557.1806c-.077.0301-.083.0542-.0296.0542.0474 0 .1423-.0241.2075-.0542.077-.0301.0829-.0542.0296-.0542-.0474 0-.1423.0241-.2075.0542m-.3853.1807c-.1067.0722-.0118.0722.1482 0 .0771-.0362.0889-.0542.0297-.0542-.0475 0-.1304.0241-.1779.0542m-.3675.1625c-.0593.0121-.1067.0542-.1067.0843 0 .0362.0415.0362.1067.0061.0533-.0301.1422-.0723.1897-.0904.077-.0301.077-.0301 0-.0301-.0475 0-.1364.0121-.1897.0301m-.4267.1927c-.0652.0241-.0889.0602-.0593.0783.0297.012.1186-.006.2016-.0482.1541-.0843.0474-.1084-.1423-.0301m-.2251.1687c.0417.0179.0953.0119.1132-.0059.0238-.0179-.0119-.0358-.0775-.0298-.0655 0-.0834.0179-.0357.0357m-.5514.1986c-.0771.0301-.083.0542-.0297.0542.0475 0 .1423-.0241.2075-.0542.0771-.0301.083-.0542.0296-.0542-.0474 0-.1422.0241-.2074.0542m-.2785.1627c.0418.0179.0954.0119.1133-.006.0238-.0178-.0119-.0357-.0775-.0298-.0655 0-.0834.0179-.0358.0358m-.2254.0842c0 .0301.0298.0421.0596.0241.0358-.0181.0596-.0482.0596-.0663 0-.012-.0238-.0241-.0596-.0241-.0298 0-.0596.0301-.0596.0663m-.3736.0963c-.0533.0121-.0889.0542-.0652.0843.0237.0361.0593.0361.1008.006.0415-.0361.1245-.0722.1897-.0903l.1185-.0301h-.1185c-.0652 0-.166.0121-.2253.0301m-.4563.1927c-.083.0241-.1186.0542-.0889.0783.0355.018.1422-.0061.2371-.0482.1896-.0843.1007-.1024-.1482-.0301m-.4269.1686c-.0593.012-.1067.0542-.1067.0843 0 .0361.0296.0421.0652.0241.0356-.0241.1363-.0663.2193-.0904.1127-.0361.1245-.0481.0415-.0481-.0652 0-.166.012-.2193.0301m-.3554.1807c.0417.0179.0953.0119.1132-.0059.0239-.0179-.0119-.0358-.0774-.0298-.0656 0-.0835.0179-.0358.0357m-.2551.0782c.0238.0361.0655.0482.0953.0301.0834-.0542.0656-.0903-.0417-.0903-.0477 0-.0715.0301-.0536.0602m-.2785.1024c.0358.0119.1073.0119.149 0 .0357-.0178.0059-.0298-.0775-.0298s-.1132.012-.0715.0298m-.255.0782c.0239.0362.0656.0482.0954.0301.0834-.0542.0655-.0903-.0417-.0903-.0477 0-.0716.0301-.0537.0602m-.2785.1025c.0358.0119.1073.0119.149 0 .0358-.0179.006-.0298-.0774-.0298-.0835 0-.1133.0119-.0716.0298m-5.0386.0902c.0534.0542.0889.0542.1423 0 .0533-.0542.0415-.0722-.0711-.0722-.1127 0-.1245.018-.0712.0722m4.7244-.0117c.0178.0298.0712.0417.1186.0178.1245-.0417.1126-.0774-.0356-.0774-.0652 0-.1067.0238-.083.0596m-4.3984.1021c.0534.0119.1363.0119.1778 0 .0356-.0179-.0059-.0298-.1067-.0298-.0948 0-.1304.0119-.0711.0298m4.0901 0c.0533.0119.1363.0119.1778 0 .0356-.0179-.0059-.0298-.1067-.0298-.0948 0-.1304.0119-.0711.0298m-3.764.0902c.0534.0542.0889.0542.1423 0 .0533-.0542.0415-.0722-.0711-.0722-.1127 0-.1245.018-.0712.0722m3.3905-.012c0 .0301.0356.0602.083.0602s.1067-.0301.1245-.0602c.0178-.0361-.0178-.0602-.083-.0602-.0711 0-.1245.0241-.1245.0602m-3.0053.1024c.0533.0119.1482.0119.2075 0 .0533-.0178.0059-.0298-.1067-.0298-.1127 0-.1601.012-.1008.0298m2.6082 0c.0533.0119.1481.0119.2074 0 .0534-.0178.0059-.0298-.1067-.0298s-.16.012-.1007.0298m-2.1812.0782c.166.0723.326.0723.326 0 0-.0361-.1008-.0602-.2193-.0542-.1838 0-.2016.0121-.1067.0542m1.6301 0c0 .0723.16.0723.326 0 .0949-.0421.0771-.0542-.1008-.0542-.1244-.006-.2252.0181-.2252.0542"/>
</svg>
