<?xml version="1.0" standalone="no"?>
<!DOCTYPE svg PUBLIC "-//W3C//DTD SVG 20010904//EN"
 "http://www.w3.org/TR/2001/REC-SVG-20010904/DTD/svg10.dtd">
<svg version="1.0" xmlns="http://www.w3.org/2000/svg"
 width="172.000000pt" height="165.000000pt" viewBox="0 0 172.000000 165.000000"
 preserveAspectRatio="xMidYMid meet">

<g transform="translate(0.000000,165.000000) scale(0.100000,-0.100000)"
fill="currentColor" stroke="none">
<path d="M794 1515 c-123 -27 -167 -57 -404 -284 -199 -190 -225 -229 -224
-337 1 -55 6 -79 23 -107 31 -50 86 -96 151 -125 30 -14 56 -26 58 -28 2 -1
-8 -39 -22 -84 -32 -101 -33 -162 -3 -220 63 -125 261 -180 597 -166 171 7
217 14 304 47 152 56 199 172 141 346 -14 42 -24 76 -23 77 52 22 141 73 166
96 76 70 92 176 42 277 -24 48 -64 94 -186 212 -232 227 -293 269 -423 297
-80 17 -117 17 -197 -1z m249 -39 c86 -31 145 -76 330 -251 153 -146 212 -215
189 -223 -7 -2 -26 -15 -42 -29 -53 -44 -52 -139 1 -191 l31 -30 -44 -29 c-24
-16 -62 -37 -85 -46 l-43 -17 0 24 c0 12 9 31 20 41 33 30 20 81 -30 123 -38
33 -146 74 -239 92 -260 51 -590 6 -708 -95 -52 -44 -61 -79 -34 -116 12 -16
21 -37 21 -49 0 -20 -1 -20 -37 -5 -77 32 -140 82 -163 129 -28 59 -24 75 23
91 44 15 82 48 103 87 19 37 18 97 -3 120 -17 19 -13 24 95 131 l113 111 23
-29 c19 -24 31 -30 64 -30 74 0 136 71 137 155 0 42 2 45 30 51 72 16 179 9
248 -15z m53 -611 c100 -16 192 -47 222 -75 11 -11 22 -38 26 -68 3 -27 20
-89 37 -138 101 -293 -23 -394 -486 -394 -215 0 -321 16 -408 63 -116 61 -135
151 -72 340 19 58 35 120 35 137 0 62 78 105 245 135 97 18 292 18 401 0z"/>
<path d="M1025 1315 c-64 -64 9 -174 118 -177 77 -1 118 41 96 100 -34 89
-158 134 -214 77z"/>
<path d="M694 1081 c-24 -11 -50 -33 -62 -53 -25 -41 -29 -73 -8 -65 36 14
183 29 246 25 77 -4 84 2 49 46 -49 62 -146 83 -225 47z"/>
<path d="M650 740 c-11 -11 -20 -29 -20 -40 0 -14 -7 -20 -21 -20 -52 0 -79
-51 -43 -81 24 -20 85 -14 105 10 10 12 21 21 27 21 19 0 42 37 42 68 0 21 -7
36 -22 46 -30 21 -44 20 -68 -4z m58 -33 c2 -10 -3 -17 -12 -17 -18 0 -29 16
-21 31 9 14 29 6 33 -14z m-63 -77 c0 -17 -43 -25 -64 -11 -22 14 -2 32 32 29
20 -2 32 -8 32 -18z"/>
<path d="M1070 740 c-37 -37 -21 -94 33 -113 9 -4 17 -11 17 -16 0 -17 58 -31
89 -20 54 19 47 72 -12 87 -20 5 -33 16 -36 28 -5 27 -31 54 -53 54 -10 0 -27
-9 -38 -20z m58 -33 c2 -10 -3 -17 -12 -17 -18 0 -29 16 -21 31 9 14 29 6 33
-14z m88 -68 c8 -14 -14 -29 -43 -29 -24 0 -38 14 -28 30 8 14 62 13 71 -1z"/>
<path d="M793 653 c-21 -8 -15 -26 7 -20 11 3 23 1 26 -4 7 -12 48 -11 61 2 8
8 16 7 30 -2 13 -7 28 -9 39 -4 11 4 27 7 38 6 27 -4 14 23 -13 27 -12 2 -28
-2 -36 -8 -9 -7 -15 -8 -20 0 -8 13 -48 13 -62 -1 -8 -8 -13 -8 -17 0 -7 11
-31 13 -53 4z"/>
</g>
</svg>
